<mxfile host="app.diagrams.net" agent="Mozilla/5.0 (X11; Linux x86_64; rv:133.0) Gecko/20100101 Firefox/133.0" version="25.0.3">
  <diagram name="A3 Форма 1" id="4UMWuW4LYQygtjcPz86S">
    <mxGraphModel dx="2840" dy="1715" grid="1" gridSize="3.937" guides="1" tooltips="1" connect="1" arrows="1" fold="1" page="1" pageScale="1" pageWidth="1654" pageHeight="1169" background="none" math="0" shadow="0">
      <root>
        <object label="" BlueprintName="&lt;font face=&quot;ISOCPEUR&quot;&gt;&lt;i&gt;ГУИР.502520.029 ПД&lt;br&gt;&lt;/i&gt;&lt;/font&gt;" ProductName="&lt;font&gt;Система управления лабораторными работами и отчётами по предмету современные языки программирования&lt;/font&gt;" Material="Диаграма классов" Manufacturer="&lt;div&gt;&lt;font style=&quot;font-size: 19px;&quot;&gt;&lt;i&gt;ИПиЭ гр.310901&lt;/i&gt;&lt;/font&gt;&lt;/div&gt;" Designer="&lt;font face=&quot;ISOCPEUR&quot;&gt;&lt;i&gt;Усов А.М.&lt;/i&gt;&lt;/font&gt;" Checker="&lt;font face=&quot;ISOCPEUR&quot;&gt;&lt;i&gt;Василькова А.Н.&lt;br&gt;&lt;/i&gt;&lt;/font&gt;" Approver="" Date="" Scale="&lt;font face=&quot;ISOCPEUR&quot;&gt;&lt;i&gt;1:1&lt;/i&gt;&lt;/font&gt;" id="-3bvXb9xsOaprucixAK7-0">
          <mxCell />
        </object>
        <mxCell id="-3bvXb9xsOaprucixAK7-1" parent="-3bvXb9xsOaprucixAK7-0" />
        <mxCell id="-3bvXb9xsOaprucixAK7-3" value="" style="rounded=0;whiteSpace=wrap;html=1;strokeWidth=2;fillColor=none;strokeColor=#000000;" parent="-3bvXb9xsOaprucixAK7-1" vertex="1">
          <mxGeometry x="79.74000000000024" y="20.700000000000042" width="1554.12" height="1129.92" as="geometry" />
        </mxCell>
        <object placeholder="BlueprintName" placeholders="1" label="&lt;font data-font-src=&quot;https://fonts-online.ru/fonts/isocpeur-v102&quot; face=&quot;ISOCPEUR&quot;&gt;&lt;i&gt;Обозначение чертежа&lt;/i&gt;&lt;/font&gt;" id="-3bvXb9xsOaprucixAK7-4">
          <mxCell style="rounded=0;whiteSpace=wrap;html=1;strokeWidth=2;fillColor=none;strokeColor=#000000;fontFamily=GOSTRUS Type A;fontSize=22;rotation=-180;" parent="-3bvXb9xsOaprucixAK7-1" vertex="1">
            <mxGeometry x="79.74000000000001" y="20.689999999999998" width="275.59" height="55.117999999999995" as="geometry" />
          </mxCell>
        </object>
        <mxCell id="-3bvXb9xsOaprucixAK7-5" value="" style="rounded=0;whiteSpace=wrap;html=1;strokeWidth=1;fillColor=none;fontFamily=GOSTRUS Type A;strokeColor=#000000;" parent="-3bvXb9xsOaprucixAK7-1" vertex="1">
          <mxGeometry x="905.5700000000022" y="934.067" width="728.3449999999999" height="216.535" as="geometry" />
        </mxCell>
        <mxCell id="-3bvXb9xsOaprucixAK7-6" value="" style="rounded=0;whiteSpace=wrap;html=1;strokeWidth=1;fillColor=none;fontFamily=GOSTRUS Type A;fontSize=14;strokeColor=#000000;" parent="-3bvXb9xsOaprucixAK7-1" vertex="1">
          <mxGeometry x="905.5800000000022" y="934.067" width="27.558999999999997" height="19.685" as="geometry" />
        </mxCell>
        <mxCell id="-3bvXb9xsOaprucixAK7-7" value="" style="rounded=0;whiteSpace=wrap;html=1;strokeWidth=1;fillColor=none;fontFamily=GOSTRUS Type A;fontSize=14;strokeColor=#000000;" parent="-3bvXb9xsOaprucixAK7-1" vertex="1">
          <mxGeometry x="905.5770000000023" y="953.754" width="27.558999999999997" height="19.685" as="geometry" />
        </mxCell>
        <mxCell id="-3bvXb9xsOaprucixAK7-8" value="" style="rounded=0;whiteSpace=wrap;html=1;strokeWidth=1;fillColor=none;fontFamily=GOSTRUS Type A;fontSize=14;strokeColor=#000000;" parent="-3bvXb9xsOaprucixAK7-1" vertex="1">
          <mxGeometry x="905.5870000000023" y="973.434" width="27.558999999999997" height="19.685" as="geometry" />
        </mxCell>
        <mxCell id="-3bvXb9xsOaprucixAK7-9" value="" style="rounded=0;whiteSpace=wrap;html=1;strokeWidth=1;fillColor=none;fontFamily=GOSTRUS Type A;fontSize=14;strokeColor=#000000;" parent="-3bvXb9xsOaprucixAK7-1" vertex="1">
          <mxGeometry x="905.5840000000022" y="993.1210000000001" width="27.558999999999997" height="19.685" as="geometry" />
        </mxCell>
        <mxCell id="-3bvXb9xsOaprucixAK7-10" value="&lt;font data-font-src=&quot;https://fonts-online.ru/fonts/isocpeur-v102&quot; face=&quot;ISOCPEUR&quot;&gt;Изм&lt;/font&gt;" style="rounded=0;whiteSpace=wrap;html=1;strokeWidth=1;fillColor=none;fontFamily=GOSTRUS Type A;fontStyle=2;fontSize=10;strokeColor=#000000;" parent="-3bvXb9xsOaprucixAK7-1" vertex="1">
          <mxGeometry x="905.5810000000023" y="1012.808" width="27.558999999999997" height="19.685" as="geometry" />
        </mxCell>
        <mxCell id="-3bvXb9xsOaprucixAK7-11" value="" style="rounded=0;whiteSpace=wrap;html=1;strokeWidth=1;fillColor=none;fontFamily=GOSTRUS Type A;fontSize=14;strokeColor=#000000;" parent="-3bvXb9xsOaprucixAK7-1" vertex="1">
          <mxGeometry x="933.1470000000023" y="934.064" width="39.37" height="19.685" as="geometry" />
        </mxCell>
        <mxCell id="-3bvXb9xsOaprucixAK7-12" value="" style="rounded=0;whiteSpace=wrap;html=1;strokeWidth=1;fillColor=none;fontFamily=GOSTRUS Type A;fontSize=14;strokeColor=#000000;" parent="-3bvXb9xsOaprucixAK7-1" vertex="1">
          <mxGeometry x="933.1440000000024" y="953.751" width="39.37" height="19.685" as="geometry" />
        </mxCell>
        <mxCell id="-3bvXb9xsOaprucixAK7-13" value="" style="rounded=0;whiteSpace=wrap;html=1;strokeWidth=1;fillColor=none;fontFamily=GOSTRUS Type A;fontSize=14;strokeColor=#000000;" parent="-3bvXb9xsOaprucixAK7-1" vertex="1">
          <mxGeometry x="933.1540000000024" y="973.4309999999999" width="39.37" height="19.685" as="geometry" />
        </mxCell>
        <mxCell id="-3bvXb9xsOaprucixAK7-14" value="" style="rounded=0;whiteSpace=wrap;html=1;strokeWidth=1;fillColor=none;fontFamily=GOSTRUS Type A;fontSize=14;strokeColor=#000000;" parent="-3bvXb9xsOaprucixAK7-1" vertex="1">
          <mxGeometry x="933.1510000000023" y="993.118" width="39.37" height="19.685" as="geometry" />
        </mxCell>
        <mxCell id="-3bvXb9xsOaprucixAK7-15" value="&lt;font data-font-src=&quot;https://fonts-online.ru/fonts/isocpeur-v102&quot; face=&quot;ISOCPEUR&quot;&gt;Лист&lt;/font&gt;" style="rounded=0;whiteSpace=wrap;html=1;strokeWidth=1;fillColor=none;fontFamily=GOSTRUS Type A;fontStyle=2;fontSize=10;strokeColor=#000000;" parent="-3bvXb9xsOaprucixAK7-1" vertex="1">
          <mxGeometry x="933.1480000000024" y="1012.805" width="39.37" height="19.685" as="geometry" />
        </mxCell>
        <mxCell id="-3bvXb9xsOaprucixAK7-16" value="" style="rounded=0;whiteSpace=wrap;html=1;strokeWidth=1;fillColor=none;fontFamily=GOSTRUS Type A;fontSize=14;strokeColor=#000000;" parent="-3bvXb9xsOaprucixAK7-1" vertex="1">
          <mxGeometry x="972.5240000000024" y="934.071" width="90.551" height="19.685" as="geometry" />
        </mxCell>
        <mxCell id="-3bvXb9xsOaprucixAK7-17" value="" style="rounded=0;whiteSpace=wrap;html=1;strokeWidth=1;fillColor=none;fontFamily=GOSTRUS Type A;fontSize=14;strokeColor=#000000;" parent="-3bvXb9xsOaprucixAK7-1" vertex="1">
          <mxGeometry x="972.5210000000025" y="953.758" width="90.551" height="19.685" as="geometry" />
        </mxCell>
        <mxCell id="-3bvXb9xsOaprucixAK7-18" value="" style="rounded=0;whiteSpace=wrap;html=1;strokeWidth=1;fillColor=none;fontFamily=GOSTRUS Type A;fontSize=14;strokeColor=#000000;" parent="-3bvXb9xsOaprucixAK7-1" vertex="1">
          <mxGeometry x="972.5310000000025" y="973.438" width="90.551" height="19.685" as="geometry" />
        </mxCell>
        <mxCell id="-3bvXb9xsOaprucixAK7-19" value="" style="rounded=0;whiteSpace=wrap;html=1;strokeWidth=1;fillColor=none;fontFamily=GOSTRUS Type A;fontSize=14;strokeColor=#000000;" parent="-3bvXb9xsOaprucixAK7-1" vertex="1">
          <mxGeometry x="972.5280000000023" y="993.1250000000001" width="90.551" height="19.685" as="geometry" />
        </mxCell>
        <mxCell id="-3bvXb9xsOaprucixAK7-20" value="&lt;font data-font-src=&quot;https://fonts-online.ru/fonts/isocpeur-v102&quot; face=&quot;ISOCPEUR&quot;&gt;№ докум.&lt;/font&gt;" style="rounded=0;whiteSpace=wrap;html=1;strokeWidth=1;fillColor=none;fontFamily=GOSTRUS Type A;fontStyle=2;fontSize=10;strokeColor=#000000;" parent="-3bvXb9xsOaprucixAK7-1" vertex="1">
          <mxGeometry x="972.5250000000024" y="1012.812" width="90.551" height="19.685" as="geometry" />
        </mxCell>
        <mxCell id="-3bvXb9xsOaprucixAK7-21" value="" style="rounded=0;whiteSpace=wrap;html=1;strokeWidth=1;fillColor=none;fontFamily=GOSTRUS Type A;fontSize=14;strokeColor=#000000;" parent="-3bvXb9xsOaprucixAK7-1" vertex="1">
          <mxGeometry x="1063.0810000000013" y="934.068" width="59.055" height="19.685" as="geometry" />
        </mxCell>
        <mxCell id="-3bvXb9xsOaprucixAK7-22" value="" style="rounded=0;whiteSpace=wrap;html=1;strokeWidth=1;fillColor=none;fontFamily=GOSTRUS Type A;fontSize=14;strokeColor=#000000;" parent="-3bvXb9xsOaprucixAK7-1" vertex="1">
          <mxGeometry x="1063.0780000000013" y="953.755" width="59.055" height="19.685" as="geometry" />
        </mxCell>
        <mxCell id="-3bvXb9xsOaprucixAK7-23" value="" style="rounded=0;whiteSpace=wrap;html=1;strokeWidth=1;fillColor=none;fontFamily=GOSTRUS Type A;fontSize=14;strokeColor=#000000;" parent="-3bvXb9xsOaprucixAK7-1" vertex="1">
          <mxGeometry x="1063.0880000000013" y="973.435" width="59.055" height="19.685" as="geometry" />
        </mxCell>
        <mxCell id="-3bvXb9xsOaprucixAK7-24" value="" style="rounded=0;whiteSpace=wrap;html=1;strokeWidth=1;fillColor=none;fontFamily=GOSTRUS Type A;fontSize=14;strokeColor=#000000;" parent="-3bvXb9xsOaprucixAK7-1" vertex="1">
          <mxGeometry x="1063.0850000000014" y="993.1220000000001" width="59.055" height="19.685" as="geometry" />
        </mxCell>
        <mxCell id="-3bvXb9xsOaprucixAK7-25" value="&lt;font data-font-src=&quot;https://fonts-online.ru/fonts/isocpeur-v102&quot; face=&quot;ISOCPEUR&quot;&gt;Подп.&lt;/font&gt;" style="rounded=0;whiteSpace=wrap;html=1;strokeWidth=1;fillColor=none;fontFamily=GOSTRUS Type A;fontStyle=2;fontSize=10;strokeColor=#000000;" parent="-3bvXb9xsOaprucixAK7-1" vertex="1">
          <mxGeometry x="1063.0820000000015" y="1012.809" width="59.055" height="19.685" as="geometry" />
        </mxCell>
        <mxCell id="-3bvXb9xsOaprucixAK7-26" value="" style="rounded=0;whiteSpace=wrap;html=1;strokeWidth=1;fillColor=none;fontFamily=GOSTRUS Type A;fontSize=14;strokeColor=#000000;" parent="-3bvXb9xsOaprucixAK7-1" vertex="1">
          <mxGeometry x="1063.0880000000013" y="1032.485" width="59.055" height="19.685" as="geometry" />
        </mxCell>
        <mxCell id="-3bvXb9xsOaprucixAK7-27" value="" style="rounded=0;whiteSpace=wrap;html=1;strokeWidth=1;fillColor=none;fontFamily=GOSTRUS Type A;fontSize=14;strokeColor=#000000;" parent="-3bvXb9xsOaprucixAK7-1" vertex="1">
          <mxGeometry x="1063.0850000000014" y="1052.172" width="59.055" height="19.685" as="geometry" />
        </mxCell>
        <mxCell id="-3bvXb9xsOaprucixAK7-28" value="" style="rounded=0;whiteSpace=wrap;html=1;strokeWidth=1;fillColor=none;fontFamily=GOSTRUS Type A;fontSize=14;strokeColor=#000000;" parent="-3bvXb9xsOaprucixAK7-1" vertex="1">
          <mxGeometry x="1063.0950000000014" y="1071.8519999999999" width="59.055" height="19.685" as="geometry" />
        </mxCell>
        <mxCell id="-3bvXb9xsOaprucixAK7-29" value="" style="rounded=0;whiteSpace=wrap;html=1;strokeWidth=1;fillColor=none;fontFamily=GOSTRUS Type A;fontSize=14;strokeColor=#000000;" parent="-3bvXb9xsOaprucixAK7-1" vertex="1">
          <mxGeometry x="1063.0920000000015" y="1091.539" width="59.055" height="19.685" as="geometry" />
        </mxCell>
        <mxCell id="-3bvXb9xsOaprucixAK7-30" value="" style="rounded=0;whiteSpace=wrap;html=1;strokeWidth=1;fillColor=none;fontFamily=GOSTRUS Type A;fontSize=14;strokeColor=#000000;" parent="-3bvXb9xsOaprucixAK7-1" vertex="1">
          <mxGeometry x="1063.0890000000013" y="1111.2259999999999" width="59.055" height="19.685" as="geometry" />
        </mxCell>
        <mxCell id="-3bvXb9xsOaprucixAK7-31" value="" style="rounded=0;whiteSpace=wrap;html=1;strokeWidth=1;fillColor=none;fontFamily=GOSTRUS Type A;fontSize=14;strokeColor=#000000;" parent="-3bvXb9xsOaprucixAK7-1" vertex="1">
          <mxGeometry x="1122.1549999999997" y="934.0719999999998" width="39.37" height="19.685" as="geometry" />
        </mxCell>
        <mxCell id="-3bvXb9xsOaprucixAK7-32" value="" style="rounded=0;whiteSpace=wrap;html=1;strokeWidth=1;fillColor=none;fontFamily=GOSTRUS Type A;fontSize=14;strokeColor=#000000;" parent="-3bvXb9xsOaprucixAK7-1" vertex="1">
          <mxGeometry x="1122.1519999999996" y="953.7589999999999" width="39.37" height="19.685" as="geometry" />
        </mxCell>
        <mxCell id="-3bvXb9xsOaprucixAK7-33" value="" style="rounded=0;whiteSpace=wrap;html=1;strokeWidth=1;fillColor=none;fontFamily=GOSTRUS Type A;fontSize=14;strokeColor=#000000;" parent="-3bvXb9xsOaprucixAK7-1" vertex="1">
          <mxGeometry x="1122.1619999999996" y="973.4389999999997" width="39.37" height="19.685" as="geometry" />
        </mxCell>
        <mxCell id="-3bvXb9xsOaprucixAK7-34" value="" style="rounded=0;whiteSpace=wrap;html=1;strokeWidth=1;fillColor=none;fontFamily=GOSTRUS Type A;fontSize=14;strokeColor=#000000;" parent="-3bvXb9xsOaprucixAK7-1" vertex="1">
          <mxGeometry x="1122.1589999999997" y="993.1259999999999" width="39.37" height="19.685" as="geometry" />
        </mxCell>
        <mxCell id="-3bvXb9xsOaprucixAK7-35" value="&lt;font data-font-src=&quot;https://fonts-online.ru/fonts/isocpeur-v102&quot; face=&quot;ISOCPEUR&quot;&gt;Дата&lt;/font&gt;" style="rounded=0;whiteSpace=wrap;html=1;strokeWidth=1;fillColor=none;fontFamily=GOSTRUS Type A;fontStyle=2;fontSize=10;strokeColor=#000000;" parent="-3bvXb9xsOaprucixAK7-1" vertex="1">
          <mxGeometry x="1122.1559999999997" y="1012.8129999999998" width="39.37" height="19.685" as="geometry" />
        </mxCell>
        <object placeholders="1" placeholder="Date" label="" id="-3bvXb9xsOaprucixAK7-36">
          <mxCell style="rounded=0;whiteSpace=wrap;html=1;strokeWidth=1;fillColor=none;fontFamily=GOSTRUS Type A;fontSize=12;strokeColor=#000000;" parent="-3bvXb9xsOaprucixAK7-1" vertex="1">
            <mxGeometry x="1122.1619999999996" y="1032.4789999999998" width="39.37" height="19.685" as="geometry" />
          </mxCell>
        </object>
        <object placeholders="1" placeholder="Date" id="-3bvXb9xsOaprucixAK7-37">
          <mxCell style="rounded=0;whiteSpace=wrap;html=1;strokeWidth=1;fillColor=none;fontFamily=GOSTRUS Type A;fontSize=12;strokeColor=#000000;" parent="-3bvXb9xsOaprucixAK7-1" vertex="1">
            <mxGeometry x="1122.1589999999997" y="1052.166" width="39.37" height="19.685" as="geometry" />
          </mxCell>
        </object>
        <mxCell id="-3bvXb9xsOaprucixAK7-38" value="" style="rounded=0;whiteSpace=wrap;html=1;strokeWidth=1;fillColor=none;fontFamily=GOSTRUS Type A;fontSize=12;strokeColor=#000000;" parent="-3bvXb9xsOaprucixAK7-1" vertex="1">
          <mxGeometry x="1122.1689999999996" y="1071.8459999999998" width="39.37" height="19.685" as="geometry" />
        </mxCell>
        <mxCell id="-3bvXb9xsOaprucixAK7-39" value="" style="rounded=0;whiteSpace=wrap;html=1;strokeWidth=1;fillColor=none;fontFamily=GOSTRUS Type A;fontSize=12;strokeColor=#000000;" parent="-3bvXb9xsOaprucixAK7-1" vertex="1">
          <mxGeometry x="1122.1659999999997" y="1091.533" width="39.37" height="19.685" as="geometry" />
        </mxCell>
        <mxCell id="-3bvXb9xsOaprucixAK7-40" value="" style="rounded=0;whiteSpace=wrap;html=1;strokeWidth=1;fillColor=none;fontFamily=GOSTRUS Type A;fontSize=12;strokeColor=#000000;" parent="-3bvXb9xsOaprucixAK7-1" vertex="1">
          <mxGeometry x="1122.1629999999998" y="1111.2199999999998" width="39.37" height="19.685" as="geometry" />
        </mxCell>
        <object placeholder="Date" placeholders="1" id="-3bvXb9xsOaprucixAK7-41">
          <mxCell style="rounded=0;whiteSpace=wrap;html=1;strokeWidth=1;fillColor=none;fontFamily=GOSTRUS Type A;fontSize=12;strokeColor=#000000;" parent="-3bvXb9xsOaprucixAK7-1" vertex="1">
            <mxGeometry x="1122.1299999999997" y="1130.9169999999997" width="39.37" height="19.685" as="geometry" />
          </mxCell>
        </object>
        <mxCell id="-3bvXb9xsOaprucixAK7-42" value="" style="rounded=0;whiteSpace=wrap;html=1;strokeWidth=1;fillColor=none;fontFamily=GOSTRUS Type A;fontSize=14;strokeColor=#000000;" parent="-3bvXb9xsOaprucixAK7-1" vertex="1">
          <mxGeometry x="1063.1160000000013" y="1130.9229999999998" width="59.055" height="19.685" as="geometry" />
        </mxCell>
        <mxCell id="-3bvXb9xsOaprucixAK7-43" value="&lt;font face=&quot;ISOCPEUR&quot; data-font-src=&quot;https://fonts-online.ru/fonts/isocpeur-v102&quot;&gt;Разраб.&lt;/font&gt;" style="rounded=0;whiteSpace=wrap;html=1;strokeWidth=1;fillColor=none;fontFamily=GOSTRUS Type A;fontStyle=2;fontSize=10;strokeColor=#000000;align=left;spacingLeft=2;" parent="-3bvXb9xsOaprucixAK7-1" vertex="1">
          <mxGeometry x="905.6050000000023" y="1032.482" width="66.929" height="19.685" as="geometry" />
        </mxCell>
        <mxCell id="-3bvXb9xsOaprucixAK7-44" value="&lt;font face=&quot;ISOCPEUR&quot; data-font-src=&quot;https://fonts-online.ru/fonts/isocpeur-v102&quot;&gt;Проверил&lt;/font&gt;" style="rounded=0;whiteSpace=wrap;html=1;strokeWidth=1;fillColor=none;fontFamily=GOSTRUS Type A;fontStyle=2;fontSize=10;strokeColor=#000000;align=left;spacingLeft=2;" parent="-3bvXb9xsOaprucixAK7-1" vertex="1">
          <mxGeometry x="905.5720000000023" y="1052.1689999999999" width="66.929" height="19.685" as="geometry" />
        </mxCell>
        <mxCell id="-3bvXb9xsOaprucixAK7-45" value="&lt;font face=&quot;ISOCPEUR&quot; data-font-src=&quot;https://fonts-online.ru/fonts/isocpeur-v102&quot;&gt;Т. контр.&lt;/font&gt;" style="rounded=0;whiteSpace=wrap;html=1;strokeWidth=1;fillColor=none;fontFamily=GOSTRUS Type A;fontStyle=2;fontSize=10;strokeColor=#000000;align=left;spacingLeft=2;" parent="-3bvXb9xsOaprucixAK7-1" vertex="1">
          <mxGeometry x="905.5690000000022" y="1071.8559999999998" width="66.929" height="19.685" as="geometry" />
        </mxCell>
        <mxCell id="-3bvXb9xsOaprucixAK7-46" value="" style="rounded=0;whiteSpace=wrap;html=1;strokeWidth=1;fillColor=none;fontFamily=GOSTRUS Type A;fontStyle=2;fontSize=10;strokeColor=#000000;" parent="-3bvXb9xsOaprucixAK7-1" vertex="1">
          <mxGeometry x="905.6060000000023" y="1091.5429999999997" width="66.929" height="19.685" as="geometry" />
        </mxCell>
        <mxCell id="-3bvXb9xsOaprucixAK7-47" value="&lt;font face=&quot;ISOCPEUR&quot;&gt;Н. контр.&lt;/font&gt;" style="rounded=0;whiteSpace=wrap;html=1;strokeWidth=1;fillColor=none;fontFamily=GOSTRUS Type A;fontStyle=2;fontSize=10;strokeColor=#000000;align=left;spacingLeft=2;" parent="-3bvXb9xsOaprucixAK7-1" vertex="1">
          <mxGeometry x="905.6030000000022" y="1111.2399999999996" width="66.929" height="19.685" as="geometry" />
        </mxCell>
        <mxCell id="-3bvXb9xsOaprucixAK7-48" value="&lt;font face=&quot;ISOCPEUR&quot; data-font-src=&quot;https://fonts-online.ru/fonts/isocpeur-v102&quot;&gt;Утв.&lt;/font&gt;" style="rounded=0;whiteSpace=wrap;html=1;strokeWidth=1;fillColor=none;fontFamily=GOSTRUS Type A;fontStyle=2;fontSize=10;strokeColor=#000000;align=left;spacingLeft=2;" parent="-3bvXb9xsOaprucixAK7-1" vertex="1">
          <mxGeometry x="905.6100000000023" y="1130.9269999999995" width="66.929" height="19.685" as="geometry" />
        </mxCell>
        <object placeholders="1" placeholder="Designer" label="&lt;font face=&quot;ISOCPEUR&quot;&gt;&lt;i&gt;Усов А.М.&lt;/i&gt;&lt;/font&gt;" id="-3bvXb9xsOaprucixAK7-49">
          <mxCell style="rounded=0;whiteSpace=wrap;html=1;strokeWidth=1;fillColor=none;fontFamily=GOSTRUS Type A;fontSize=10;strokeColor=#000000;" parent="-3bvXb9xsOaprucixAK7-1" vertex="1">
            <mxGeometry x="972.5620000000024" y="1032.499" width="90.551" height="19.685" as="geometry" />
          </mxCell>
        </object>
        <mxCell id="-3bvXb9xsOaprucixAK7-50" value="" style="rounded=0;whiteSpace=wrap;html=1;strokeWidth=1;fillColor=none;fontFamily=GOSTRUS Type A;fontSize=14;strokeColor=#000000;" parent="-3bvXb9xsOaprucixAK7-1" vertex="1">
          <mxGeometry x="972.5190000000025" y="1091.5559999999998" width="90.551" height="19.685" as="geometry" />
        </mxCell>
        <mxCell id="-3bvXb9xsOaprucixAK7-51" value="" style="rounded=0;whiteSpace=wrap;html=1;strokeWidth=1;fillColor=none;fontFamily=GOSTRUS Type A;fontSize=14;strokeColor=#000000;" parent="-3bvXb9xsOaprucixAK7-1" vertex="1">
          <mxGeometry x="972.4820000000025" y="1071.869" width="90.551" height="19.685" as="geometry" />
        </mxCell>
        <object placeholders="1" placeholder="Checker" label="&lt;font face=&quot;ISOCPEUR&quot;&gt;&lt;i&gt;Василькова А.Н.&lt;br&gt;&lt;/i&gt;&lt;/font&gt;" id="-3bvXb9xsOaprucixAK7-52">
          <mxCell style="rounded=0;whiteSpace=wrap;html=1;strokeWidth=1;fillColor=none;fontFamily=GOSTRUS Type A;fontSize=10;strokeColor=#000000;" parent="-3bvXb9xsOaprucixAK7-1" vertex="1">
            <mxGeometry x="972.4850000000024" y="1052.182" width="90.551" height="19.685" as="geometry" />
          </mxCell>
        </object>
        <object placeholders="1" placeholder="Approver" label="" id="-3bvXb9xsOaprucixAK7-53">
          <mxCell style="rounded=0;whiteSpace=wrap;html=1;strokeWidth=1;fillColor=none;fontFamily=GOSTRUS Type A;fontSize=14;strokeColor=#000000;" parent="-3bvXb9xsOaprucixAK7-1" vertex="1">
            <mxGeometry x="972.5960000000025" y="1130.9029999999998" width="90.551" height="19.685" as="geometry" />
          </mxCell>
        </object>
        <mxCell id="-3bvXb9xsOaprucixAK7-54" value="" style="rounded=0;whiteSpace=wrap;html=1;strokeWidth=1;fillColor=none;fontFamily=GOSTRUS Type A;fontSize=14;strokeColor=#000000;" parent="-3bvXb9xsOaprucixAK7-1" vertex="1">
          <mxGeometry x="972.5590000000025" y="1111.216" width="90.551" height="19.685" as="geometry" />
        </mxCell>
        <object placeholders="1" placeholder="BlueprintName" label="&lt;font face=&quot;ISOCPEUR&quot;&gt;&lt;i&gt;ГУИР.502520.029 ПД&lt;br&gt;&lt;/i&gt;&lt;/font&gt;" id="-3bvXb9xsOaprucixAK7-55">
          <mxCell style="rounded=0;whiteSpace=wrap;html=1;strokeWidth=1;fillColor=none;fontFamily=GOSTRUS Type A;fontSize=24;strokeColor=#000000;" parent="-3bvXb9xsOaprucixAK7-1" vertex="1">
            <mxGeometry x="1161.5379999999984" y="934.075" width="472.44" height="59.055" as="geometry" />
          </mxCell>
        </object>
        <object placeholders="1" placeholder="ProductName" label="&lt;font&gt;Система управления лабораторными работами и отчётами по предмету современные языки программирования&lt;/font&gt;" id="-3bvXb9xsOaprucixAK7-56">
          <mxCell style="rounded=0;whiteSpace=wrap;html=1;strokeWidth=1;fillColor=none;fontFamily=GOSTRUS Type A;fontSize=15;strokeColor=#000000;" parent="-3bvXb9xsOaprucixAK7-1" vertex="1">
            <mxGeometry x="1161.5349999999985" y="993.1020000000001" width="275.59" height="98.425" as="geometry" />
          </mxCell>
        </object>
        <object placeholders="1" placeholder="Material" label="Диаграма классов" id="-3bvXb9xsOaprucixAK7-57">
          <mxCell style="rounded=0;whiteSpace=wrap;html=1;strokeWidth=1;fillColor=none;fontFamily=GOSTRUS Type A;fontSize=20;strokeColor=#000000;" parent="-3bvXb9xsOaprucixAK7-1" vertex="1">
            <mxGeometry x="1161.5019999999986" y="1091.529" width="275.59" height="59.055" as="geometry" />
          </mxCell>
        </object>
        <object placeholders="1" placeholder="Manufacturer" label="&lt;div&gt;&lt;font style=&quot;font-size: 19px;&quot;&gt;&lt;i&gt;ИПиЭ гр.310901&lt;/i&gt;&lt;/font&gt;&lt;/div&gt;" id="-3bvXb9xsOaprucixAK7-58">
          <mxCell style="rounded=0;whiteSpace=wrap;html=1;strokeWidth=1;fillColor=none;fontFamily=GOSTRUS Type A;fontSize=24;strokeColor=#000000;" parent="-3bvXb9xsOaprucixAK7-1" vertex="1">
            <mxGeometry x="1437.01" y="1091.56" width="196.97" height="59.06" as="geometry" />
          </mxCell>
        </object>
        <object label="&lt;font data-font-src=&quot;https://fonts-online.ru/fonts/isocpeur-v102&quot; face=&quot;ISOCPEUR&quot;&gt;Лист&lt;/font&gt; 2" placeholders="1" id="-3bvXb9xsOaprucixAK7-59">
          <mxCell style="rounded=0;whiteSpace=wrap;html=1;strokeWidth=1;fillColor=none;fontFamily=GOSTRUS Type A;fontStyle=2;fontSize=14;strokeColor=#000000;" parent="-3bvXb9xsOaprucixAK7-1" vertex="1">
            <mxGeometry x="1437.1259999999907" y="1071.8329999999996" width="78.74" height="19.685" as="geometry" />
          </mxCell>
        </object>
        <mxCell id="-3bvXb9xsOaprucixAK7-60" value="&lt;font data-font-src=&quot;https://fonts-online.ru/fonts/isocpeur-v102&quot; face=&quot;ISOCPEUR&quot;&gt;Листов&lt;/font&gt; 2" style="rounded=0;whiteSpace=wrap;html=1;strokeWidth=1;fillColor=none;fontFamily=GOSTRUS Type A;fontStyle=2;fontSize=14;strokeColor=#000000;" parent="-3bvXb9xsOaprucixAK7-1" vertex="1">
          <mxGeometry x="1515.8029999999883" y="1071.8699999999994" width="118.11" height="19.685" as="geometry" />
        </mxCell>
        <mxCell id="-3bvXb9xsOaprucixAK7-61" value="&lt;font data-font-src=&quot;https://fonts-online.ru/fonts/isocpeur-v102&quot; face=&quot;ISOCPEUR&quot;&gt;Масштаб&lt;/font&gt;" style="rounded=0;whiteSpace=wrap;html=1;strokeWidth=1;fillColor=none;fontFamily=GOSTRUS Type A;fontStyle=2;fontSize=12;strokeColor=#000000;" parent="-3bvXb9xsOaprucixAK7-1" vertex="1">
          <mxGeometry x="1563.109999999987" y="993.1069999999993" width="70.866" height="19.685" as="geometry" />
        </mxCell>
        <mxCell id="-3bvXb9xsOaprucixAK7-62" value="&lt;font data-font-src=&quot;https://fonts-online.ru/fonts/isocpeur-v102&quot; face=&quot;ISOCPEUR&quot;&gt;Масса&lt;/font&gt;" style="rounded=0;whiteSpace=wrap;html=1;strokeWidth=1;fillColor=none;fontFamily=GOSTRUS Type A;fontStyle=2;fontSize=12;strokeColor=#000000;" parent="-3bvXb9xsOaprucixAK7-1" vertex="1">
          <mxGeometry x="1496.176999999989" y="993.1339999999993" width="66.929" height="19.685" as="geometry" />
        </mxCell>
        <mxCell id="-3bvXb9xsOaprucixAK7-63" value="&lt;font data-font-src=&quot;https://fonts-online.ru/fonts/isocpeur-v102&quot; face=&quot;ISOCPEUR&quot;&gt;Лит.&lt;/font&gt;" style="rounded=0;whiteSpace=wrap;html=1;strokeWidth=1;fillColor=none;fontFamily=GOSTRUS Type A;fontStyle=2;fontSize=12;strokeColor=#000000;" parent="-3bvXb9xsOaprucixAK7-1" vertex="1">
          <mxGeometry x="1437.1239999999907" y="993.1009999999993" width="59.055" height="19.685" as="geometry" />
        </mxCell>
        <mxCell id="-3bvXb9xsOaprucixAK7-64" value="" style="rounded=0;whiteSpace=wrap;html=1;strokeWidth=1;fillColor=none;fontFamily=GOSTRUS Type A;strokeColor=#000000;" parent="-3bvXb9xsOaprucixAK7-1" vertex="1">
          <mxGeometry x="1437.0909999999906" y="1012.8179999999993" width="59.055" height="59.055" as="geometry" />
        </mxCell>
        <mxCell id="-3bvXb9xsOaprucixAK7-65" value="" style="rounded=0;whiteSpace=wrap;html=1;strokeWidth=1;fillColor=none;fontFamily=GOSTRUS Type A;strokeColor=#000000;" parent="-3bvXb9xsOaprucixAK7-1" vertex="1">
          <mxGeometry x="1496.183999999989" y="1012.7809999999994" width="66.929" height="59.055" as="geometry" />
        </mxCell>
        <object placeholders="1" placeholder="Scale" label="&lt;font face=&quot;ISOCPEUR&quot;&gt;&lt;i&gt;1:1&lt;/i&gt;&lt;/font&gt;" id="-3bvXb9xsOaprucixAK7-66">
          <mxCell style="rounded=0;whiteSpace=wrap;html=1;strokeWidth=1;fillColor=none;fontFamily=GOSTRUS Type A;fontSize=18;strokeColor=#000000;" parent="-3bvXb9xsOaprucixAK7-1" vertex="1">
            <mxGeometry x="1563.046999999987" y="1012.7839999999993" width="70.866" height="59.055" as="geometry" />
          </mxCell>
        </object>
        <mxCell id="-3bvXb9xsOaprucixAK7-67" value="" style="rounded=0;whiteSpace=wrap;html=1;strokeWidth=1;fillColor=none;fontFamily=GOSTRUS Type A;strokeColor=#000000;" parent="-3bvXb9xsOaprucixAK7-1" vertex="1">
          <mxGeometry x="1437.1279999999906" y="1012.7749999999993" width="19.685" height="59.055" as="geometry" />
        </mxCell>
        <mxCell id="-3bvXb9xsOaprucixAK7-68" value="" style="rounded=0;whiteSpace=wrap;html=1;strokeWidth=1;fillColor=none;fontFamily=GOSTRUS Type A;strokeColor=#000000;" parent="-3bvXb9xsOaprucixAK7-1" vertex="1">
          <mxGeometry x="1456.77499999999" y="1012.8219999999993" width="19.685" height="59.055" as="geometry" />
        </mxCell>
        <mxCell id="-3bvXb9xsOaprucixAK7-69" value="" style="rounded=0;whiteSpace=wrap;html=1;strokeWidth=1;fillColor=none;fontFamily=GOSTRUS Type A;strokeColor=#000000;" parent="-3bvXb9xsOaprucixAK7-1" vertex="1">
          <mxGeometry x="1476.5019999999895" y="1012.8189999999993" width="19.685" height="59.055" as="geometry" />
        </mxCell>
        <mxCell id="-3bvXb9xsOaprucixAK7-99" value="" style="endArrow=none;html=1;fontSize=18;strokeColor=#000000;strokeWidth=2;exitX=0;exitY=1;exitDx=0;exitDy=0;entryX=1;entryY=1;entryDx=0;entryDy=0;" parent="-3bvXb9xsOaprucixAK7-1" edge="1">
          <mxGeometry width="50" height="50" relative="1" as="geometry">
            <mxPoint x="79.64149999999972" y="493.03849999999966" as="sourcePoint" />
            <mxPoint x="79.63850000000002" y="20.648500000000126" as="targetPoint" />
          </mxGeometry>
        </mxCell>
        <mxCell id="-3bvXb9xsOaprucixAK7-110" value="" style="endArrow=none;html=1;fontSize=18;strokeColor=#000000;strokeWidth=2;entryX=1;entryY=1;entryDx=0;entryDy=0;exitX=0;exitY=1;exitDx=0;exitDy=0;" parent="-3bvXb9xsOaprucixAK7-1" edge="1">
          <mxGeometry width="50" height="50" relative="1" as="geometry">
            <mxPoint x="79.74400000000014" y="1150.5440000000003" as="sourcePoint" />
            <mxPoint x="79.74000000000024" y="579.6750000000006" as="targetPoint" />
          </mxGeometry>
        </mxCell>
        <mxCell id="9D7nrBtgcaADiKXictoK-0" value="" style="shape=image;verticalLabelPosition=bottom;labelBackgroundColor=default;verticalAlign=top;aspect=fixed;imageAspect=0;image=data:image/png,iVBORw0KGgoAAAANSUhEUgAAAxUAAALmCAYAAAA0bLkJAAAAAXNSR0IArs4c6QAAAARnQU1BAACxjwv8YQUAAAAJcEhZcwAADsMAAA7DAcdvqGQAAKNwSURBVHhe7N0LeFXVgff/BUlIgAIR4QXBP6AIhaHWQAehk7Fg1IIDU5RR3qFpbRiwKIGxlIKU9iUEWkQoQxkaKwUKZSalEzsRHSNI5eL4ZF7QEdCWBwovFvIUDQ/IRYZLuOW/fyt7HXcOSUhycjnJ+X6eZz37svblgHjO/u211t4tSktLDQAAAADUVkt/CgAAAAC1QqgAAAAAEBFCBQAAAICIECoAAAAARIRQAQAAACAihAoAAAAAESFUAAAAAIgIoQIAAABARAgVAAAAACJCqAAAAAAQEUIFAAAAgIi0KC0t9Wcj5x2rpVdaeLMqQHWUtmjRQuW6vwwAAIAmJuJQoRBx7dq1BBcoNPVWEypQXaFQoRIXF3eVgAEAANC0RBQqrl+/HqdA4U3jvWk8oQK1EAoVLVu2vOaVq/Hx8Vc09esBAAAQ5WodKhQorl69mqhQoUChYKFAoWDhVRMqUF3BloprChRxcXGh4m8DAACAKFarUKHgoEChcuXKlURvOU6hQkGDUIEasqHCtVL4weKyV0oSEhJKFDb87QAAABClahUqvDDRyg8Vra5du9bqt7/97f954403nvargZsaMmTIy9/4xjfm6N+fHyquqqh1QqHCm15WqFC48HcBAABAlKrVI2W9C8GWapXwWyfiCRSoqV27dj2qYKpQ6neha+X9WwqNz/H/fbnudAAAAIhiNW6pUKC4cuVKkorfWpH49NNP/0l1a9assdsAVZk4caKdLl68eIg3seMp/C5PtoVCrRMqCQkJl1TUNcruAAAAgKhU45YK3T0OL34VUCMlJSWhVgmFVW+VG48TXgAAABDFahwIWrRocUMBIsG/IwAAgKaNVgYAAAAAESFUAAAAAIgIoQIAAABARJp8qDh69OgNpak5fvz4DX+GM2fO+LUAAABAdKvxI2WvX78eH/5I2SlTphxWXWM8UtY9njTc2LFjzahRo/yl6JaTk2N2797tL31m0KBBZtKkSSYxMdFf0zy4/2YLFixIjY+PL42Li7vmXnRXySNlr9odAAAAEJWaTfenPn362ItwJz8/3+zdu9dfahq6dOli/wyaioLGK6+8YucBAACAaNVsQsX48eNNZmameeGFF/w15oZQ4boWlZSU+GvKBNer25Hmg1x9RV2StI+rD+eOpe5NweXw8zsPPvig/TMsXLjQhiS5cOGCnTruGBWdz3H1FX1e19WqojoAAACgNppN96e5c+eanj172vlFixaZQ4cOmfvuu89kZGTYC+nly5eHLu7lySefNEOHDrXz7hjp6ekmNzfXzuvPolCyYsUKu+y48ygYvPnmm7ZFJGjatGkmJSXFzm/bts0eT60P/fv3Dx1bli5dapKTk+286/40YsQIM2TIEPPxxx+bVatW2ToFDNdyMWfOnHJ/BgnW3+zzrl69ulw3K/f309Do/gQAANC8NJuWCl2I6w68LuQVKKRfv372jry7GNfFt2sB0EV7+AW6LvpVr6L93AW661qlkpSUZNcFA4Xq3YW99jlw4ICdd3Qh747tFBYW+nOfeeONN8z8+fNDgUIBxR1XunfvHvocbr3Cktzs8y5btiwUKLRe3n77bbNz5047DwAAANRWswkVuhDXBblrDdCFtVoi3IW0LsInT55su0m5C/J9+/bZqaM797Nnz7bl7Nmz/lpjhg8fbgdMq2uS29cFCrV4aHu1GGh/2bp1q50GqVuWtnMX9EeOHLHTIB1b9S58KCQUFBTYedH5R48ebVJTU0OtIS4YVfV5FbZc0Jo5c6Y9hvus7733np0CAAAAtdXsBmrrYll3+HUBL/v377dTXXy/9tprtrg7/h07drR1jusOJeoy5C7uFVimTJliL/DdGArntttu8+eM6dGjhz9Xns7lnuCkblCVcWMq9Nn19Cpx4UWfXy0uCk4KG2rVcPR5qvq8hw/b3mmWAo/+Ds6fP28/V69evfwaAAAAoHaa3UBtjRFwd/Glbdu2dqoLbtW7ojv5we2kdevW/lwZXdwroOjiW3SBv2fPHtOhQwe7HO7ixYv+XOTCP8umTZtssNC4C42TUItDuMo+b5s2beyyuBYMVxRkAAAAgEg0m1BRGY2rEHX/0XgL3dXXgObs7Gy7vjKuReKWW26x3YVcK4CexqQB1q4b1IYNG0LHdK0KVbVGVOXkyZP2WBqTERzULWpZCAofC1HV573jjjvsvLjPq3NogHhxcbFfAwAAANROsw8VAwcODF1g60LddR8KH6QdThfb2tYVNyahd+/edvrEE0/Yqda7Y4rOpTEPteEGai9ZssRfUzZYWzp37mynbpvwMFDV51UAUguHaHC2O0fwSVAAAABAbcXNmzfPn62e0tLSlnqsbLAUFBQ8o7oxY8bYbRrSn//8Zzuu4Ytf/KL53Oc+56/9THx8vBk8eLDp1q2bXXbb6vGx7pGulR1D8+qGpLovf/nL5pvf/KYdjyGdOnUyw4YNK7eNWggeffTR0PgJDZ6+evWqHbfQt2/fStedOHEidAxX3Gd0LS133XWX/bwJCQkmLS3NfPWrXzWnT58ObatuXlV93gEDBthxF/ps+uw6nv57ueM3pFdffdVOvT/HL1u2bGm8Yh8r603LFW/dVZUWLVpctzsAAAAgKjX591Sg6eE9FQAAAM1Ls+/+BAAAAKB+ESoAAAAARIRQAQAAACAihAoAAAAAESFUAAAAAIgIoQIAAABARAgVAAAAACJSp++pAGqC91QAAAA0D7RUAAAAAIgIb9RGg+ON2gAAAM0LLRUAAAAAIkKoAAAAABARQgUAAACAiBAqAAAAAESk0UNFSUmJ2bZtm51W5OjRo2bv3r3+EgAAAIBoE/UtFYcPHzaFhYX+EgAAAIBo0+ihIjEx0aSlpdkpAAAAgKan0UPFmTNnbujepC5P6hJFtycAAAAg+jV6qDh79my57k0FBQVm5cqVdv7gwYMmNzfXzgMAAACITvUaKtQKoRYHV7RcFdXn5+ebrKws2yVq3LhxZsSIEX4tAAAAgGgUVQO11WoxaNCgcuMrOnXq5M8BAAAAiEb1GiqSk5Nti4MrWgYAAADQvERVS0VSUpI5duxYuXdWFBUV+XMAAAAAolFUhYouXbqYlJQUk52dbcdg5OTkmOLiYr8WAAAAQDRq9FDRoUMHk5qa6i8ZOzhbRUaPHm3Gjx9frh4AAABAdGn0UKFxFmqdCNKyxmD07NnTlvB6AAAAANEjqro/AQAAAGh6CBUAAAAAIkKoAAAAABARQgUAAACAiBAqAAAAAESEUAEAAAAgIoQKAAAAABEhVAAAAACICKECAAAAQEQIFQAAAAAi0uih4syZM2bv3r2mpKTE7Ny50xbNBx04cMBs27bNbhekdeH7VXUcV6f9dF4AAAAAkWv0UHH27FmzefNms2HDBnPhwgXz3nvvmdWrV/u1ZcFh69atdl7bFRQU2HnJzc0N7bdjxw7zyiuv2H0rOo5CxJQpU0xRUZG5ePGiWbx4McECAAAAqAP1Gip00a5Q4EplF/GHDh0yjzzyiElLSzOTJk0yu3fvDm2bmppqMjMzbd2ECRNMfn6+Xe8MHTrU1k2fPt288cYb5oEHHih3HGfLli0mPT3djBs3zowaNcpOCwsL/VoAAAAAtRUVYyoGDRpkkpOT7XxiYqJdVguGWz5+/Lg5evSo2bdvn10X1K9fPzvVdhK+7Jw4ccKcPHkyFHAOHjxojhw54tcCAAAAqK16DRUKCmo1cMUFh5pYt26dWbt2rdm+fbu/pm506tTJtoIAAAAAiExUtFRURi0UxcXFZvbs2SYjI8MMGDDAr6m5tm3bmr59+5YLOSkpKX4tAAAAgNqK6lChlg2Nt9DgbHVZ2rRpk19Tcw8//LBZsWKFycvLu+kYDwAAAADV1+ihokOHDjd0Q9Ky1mtcxNKlS03r1q1NmzZtzPjx4+1gayc4L1Utd+nSxR6rR48edrljx472uAAAAAAi06K0tNSfrZ7r16/HX7lyJUnl6tWriSpTpkw5rLo1a9bYbYCqTJw40U4XLFiQGh8fXxoXF3ctISGhxJsv8eYva6rirbuk0rJly6t2BwAAAESlqO7+BAAAACD6ESoAAAAARIRQAQAAACAihAoAAAAAESFUAAAAAIgIoQIAAABARAgVAAAAACLS6KFCb7Xeu3evvxSZkpIS+6ZsTQEAAAA0jEYPFWfPnjWFhYX+EgAAAICmpll1f0pMTDRpaWl2CgAAAKBhRGWoOH78uO3GtHPnTts9Kpy6S6n+6NGjdl5TCe9KpW3EbV/RsQAAAABEJupCRUFBgVm+fLmdLyoqMjNmzLAhw1m0aFGou9Rrr71mVqxYYQ4fPmyXw7tS5ebm2uMdO3bMnDx50h6L8RYAAABA3arXUKGWAbUQuHKzlgLV5+fnm6ysLNuNady4cebJJ580mzZtsvVqcWjXrp3JzMy09Zp26dLF1lWme/fuZtSoUfZYgwYNMvv37/drAAAAANSFqGqpUEuDLvyDYyIGDhxo3n77bTt/6tQp079/fzvvKDRUJSUlxZ8zdl8dAwAAAEDdqddQkZycbFsUXNEyAAAAgOYlqloqOnToYHbv3l1u3MOePXvMfffdZ+fbtGljx1k42k7jJQAAAAA0nqgKFWrJGDt2rMnOzrZjMPLy8syqVavMww8/bOvVFaq4uNjk5OTY+mXLltn1ChsAAAAAGkejhwq1TqSmpvpLxg6qnjx5sp3v0aOHeeGFF0KDsTXWYvr06eZLX/qSXX7qqafsmIrbbrvNLocfKz093Z8r07t3b1sAAAAA1J1GDxVqnQgOppaePXvaMRhDhw694UV2WtZ61bdu3dp2l1KYkPBjaZsgHVcFAAAAQN2Jqu5PNxP+iFp1k1J3KQaAAwAAAI2nSYUKtUx07NjRXzLmmWeesd2lAAAAADSeJhUq1PVJ3ZvcI2pv9uI7AAAAAPWvSYUKAAAAANGHUAEAAAAgIoQKAAAAABEhVAAAAACICKGiHhw9etTs3bvXXwIAAACaN0JFPTh8+LApLCz0lwAAAIDmjVABAAAAICKNHir0lmx1FSopKTE7d+60b8rWuqDjx4/b9arXdo7mta/qgt2NtL87lroiieaD+1a07ASPe+DAAX9tGa13nzl4Tp1H2wfXAQAAALGg0UPF2bNnzebNm83q1avNhQsXzMmTJ82MGTNCwUIX68uXL7fzusBftmyZnRftc/DgQTt/6tQpO1UgWLx4sfnkk0/s8unTp+30nXfeMX/605/svEJKbm5uaFnnKCoqsvM675QpU0LHXb9+vcnLy7Pzom5NGzduNMeOHfPXGFNQUGBWrlxp57Wfjg0AAADEinoNFbpA1917V1xQCHfo0CGTnp5u35I9btw4M2LECLN7925b17VrV7Nw4UJbl5GRYbdVKBBto+3dG7aluLjYdO/e3YwaNcqu0xu45d5777VjHURhYtCgQaFlTfv162fnt2zZYj+LO25WVpZtfXDnlDZt2tjj69j6M+Xn59vttL37/AAAAECsiIoxFbrAT05O9peMGTJkiNm/f7+dT0xMtBfuak1Ql6YuXbqYS5cu2TpdvOfk5JTrcqQQcu7cOdu64Lo+yYABA8zvf/97O//ee++Zxx57LLSsc91xxx12/sSJE6Z37952XnT+1NRUs2/fPn+NMV/84hf9ubKWFn1+bed06tTJnwMAAACav3oNFQoKrhVBJRgcqqIuS23btrXzChLqzvTaa6/Z7lFBahUYPXq07ZK0aNEiu04X97NnzzZ9+/a1XZLUNUkURtTKoYCi0KFlUXcpdWVyy5VR64TTunVrfw4AAABAVLRUqBtTcNC0Wh5cd6RVq1bZrkWZmZm2xSBcz549bZ0EWybUNUn7qWuSo5YNdW+6++677bKmb775ZqiLlHTu3DnULUr0uRRaXEtGuKSkJBtKgp/fjc8AAAAAYkFUhIo+ffrYAdgad7Fu3To7LmLgwIG2Tl2LNmzYYOs0MLt9+/Z2vbixGq41QgEjOI5D+40dO9bWiVov3njjDfOXf/mXdlndnBQ6gt2ZvvrVr9qB1uo+pWNkZ2fb0FFZS4bWq17baXt1x9LnBwAAAGJF3Lx58/zZ6iktLW15/fr1+GDxLuqfUd2YMWPsNjWhMQlqYfiHf/gH8/HHH5vbbrvNPProo6ExCvfcc4+5evWquXLlim1p0HgFjZtQC4H2vXjxounQoYPdJz4+3rRo0cI++Unbq3XhK1/5ij2OaB+1RLiWCh2rXbt2NlRoX9E2I0eOtMfVMR566KFyLSStWrUKnd/ReI1bb73V7jN06FB7fJ1H2+FGr776qp2mpaX9smXLlsYrpXFxcde8abnirbuq4v03vW53AAAAQFRq4YUEf7Z6FCK8i+0kFe9iP1FlypQptr/QmjVr7DY1oUCh8RKuCxOav4kTJ9rpggULUr0wZwNFQkJCiTdf4s1f1lTFW3dJxQsYV+0OAAAAiEpR0f0JAAAAQNPV6KFCXZcqGoANAAAAoGlo9FChx8wGn74EAAAAoGmh+xMAAACAiBAqAAAAAESEUAEAAAAgInX6SFmgJnikLAAAQPNASwUAAACAiDT6y+8Qe3j5HQAAQPNCSwUAAACAiBAqAAAAAESEUAEAAAAgIjz9CY2GMRUAAADNAy0VAAAAACLC05/Q4Hj6EwAAQPNCSwUAAACAiBAqAAAAAESEUAEAAAAgIoQKNJqNGzc+e/jw4UH+IgAAAJooBmqjwbmB2k7Lli0vf/7zn3+3T58+uwYMGLD9jjvu2MNAbQAAgKaDUIEGp1DRokULU9m/vaSkpE/vueeerX/xF3/x1t133/3m7bffvs+vAgAAQBQiVKDBuZYKL1hc8f79JTz00EPm//v//j/zxz/+0Rw4cMB88skntt7p1KnTkQEDBuxISUl5Q9Pk5ORivwoAAABRgFCBBudCxeOPP5710ksvZWv+29/+thkyZIhd//HHH9uA8Yc//MFOL1y4YNc73bt3P+AFjM1qydBUXaT8KgAAADQCQgUaXPDld2+99dY/vPnmmxPj4+PN9OnTTb9+/WxdUFFRUShgaBouNTX1N88888x4fxEAAAANjKc/oVE98MADa770pS+95oVTk5OTc0PXJ+nRo4f5m7/5Gxs6FFxnzpxpl2+99VZbv3PnzkfsDAAAABoFoQKN7u/+7u+e79+/f6G6OT3//PM3dHcKp9aMr33ta6ZVq1Z2+Rvf+Mb37QwAAAAaBaECjS4+Pv7yN7/5zdldu3b9UC0Vy5YtM1euXPFrK/a73/3Ojr3o0aPH3q9+9asv+qsBAADQCBhTgQYXHFPhBYrSuLi4awkJCSWffvpppyVLlmz4n//5n84DBw40U6dOtduFO3v2rJk1a5ZRl6msrKz79UQovwoAgKjiXWfpWqulX+y8XwXcVIsWLa57pdSf2nm/KuoQKtDgKgsVeuHdRx99dNdPfvKT33r/vhI1buLv/u7v7LZBP/vZz8yePXtMt27d9v/4xz/+q7Zt257xqwAAiBoKENeuXUvwSry32MK7hrLhoqwWuLlgqGjZsuU175rpiqZ+dVQhVKDBVRUqvPnLf/zjH7+8fPnyf9U23/zmN83w4cPt9qKnP6l7lNO+ffviyZMnPz148OCN/ioAABqdgoQfKBJ07aQwoVDhVbUo2wKoFgWKUgUJP1Rc1tS7Zrrs10cNQgUa3M1Chabbtm3L+M1vfvMjbaenPn3hC1+w4yyys7PtWIq//du//cmBAwf++tChQ0O1zT333LM5IyNjut5hoWUAABqLAoT3m5WoayVvPk4BQ9dPrs5uBFSDWig09YLEVT9YXHXXTFq2G0UJQgUaXHVChUpeXt68zZs3Z3rz5gc/+IFtpfj3f/93Ozj7ueee+7K3z6Xf/e53T/36179+7vz588nevpdGjx7903HjxmWrzp4EAIAG5F1XtfBCRCuFCl0juZYKFdURKlATge5PrutTKFSoqM7ftNERKtDgqhsqFAz++Z//+V/ffffdMXonxaefflrq/btrET44W4FCwUIBQ8t0iQIANBa1SrjrI6+0UsDIz8+fs2XLlsn+JsBNedcwr6Snp//QDxXXvesjtVRc8a6PLrtrpVatWl1SyPB3aXSkZUS1f/zHf/xGnz59dupRswoUent2+NOeNFD7ySeffPrHP/7xl7WtFz66Llmy5GVvedOxY8dufEU3AAD1x7ZGXL9+Pc61UBAoUFO6oarWLoVSFb+lS/+mbPH/jUXVdTwtFWhwNWmpUNGjZrOzs7efO3cu+Sc/+cnA5OTkYnuAStAlCgDQWHQh6K6TdDGo66SpU6ceUh3XSagOd5303HPP/VXLli3VSmFbKNz1Ufh1kt04CtBSgainELFs2bL+q1evvu1mgUIeeuihF3/2s5/doan3hZ70yiuvzH766af/5KX+R/xNAACoL3q6UwtPaF4zQE15gdQ9hrhJ/BsiVKBZoksUAABAwyFUoFlToFCwUMBQ0Hj//fdHfu9739uTm5v7nJqm/c0AAAAQAUIFYgJdogAAAOoPoQIxgy5RAAAA9YNQgZhTWZeol156aR5dogAAqL69e/eabdu2maNHj/praibS/RE9CBWIWa5L1LBhw9apS5QXKrKeeeaZ/d4X3Eh/EwAAUIXCwkKTm5trDh+2bxeosUj3R/QgVCCmqaUiMzNzglouevTosffkyZO9Fi5cuEldok6cONHL3wwAAABVIFQAHnWJ0ov1vvWtb013XaL+8R//cT9dogAAqL0zZ86EujipHD9+3K+5UUlJidm5c6fdTvsF1eQ4aByECiBg1KhRP9WL9ugSBQBA5GbMmGFWrFhhuzipzJkzx4aDcCdPnjRTpkwxq1atsttpv2BwqO5x0HgIFUAYvbWbLlEAAEQuPT09VO677z67TuEg3BtvvGFGjBhhxo4d668xZtOmTf5c9Y+DxkOoACpBlygAACIzaNAgO1VLRHFxsZ0XdXUKUqAYN26cegyYJ5980q57++237VSqexw0HkIFcBN0iQIAoOYOHDhguy2pu5JaIj799FO/xpQLBtKpUyd/zpjbbrvNnytTk+Og8RAqgGqgSxQAADWzdetWO1XLw5o1a8zkyZPtckXUAuH84Q9/sNMuXbrYaU2Og8ZDqABqgC5RAADcaP/+/aEnM6kEX2a3Y8cOu27lypX+mhupBSIvL88UFBSY/Px8uy4lJcVOneocB42HUAHUAl2iAAD4zO7du0NPZlLRy+z69+9v6w4dOmTXhYeEII2ZULBwgaJPnz5mzJgxdr4mx0HjaVFaWurPVs/169fjdUdW5erVq4kqU6ZMsa9BVJMUcDMTJ0600wULFqTGx8eXxsXFXUtISCjx5ku8+cuaqnjrLqm0bNnyqt0hSnlfckNXrlz586KiIvstN3jw4I1PPvnk0+oyZTcAAMSM8GsklalTpx5UXXO8TtJjXU+dOuUvfaZ3796mZ8+etsVCAUPLHTp0sOFDFCK838nQ/sH6jh072iCRmJhot5WbHac5Cb9O8spld50ULO46yW4cBQgVaHDNLVQ4GzdunP3KK688e/78+WTvz3Hpf//v/52tFo1o+h8eAFC/Yi1UoO411VBB9yegjjzyyCOL1CUqNTX1N+oS9etf//q5WbNm7aFLFAAAaO4IFUAdUpenZ555ZnxWVtb93bt3P3Ds2LF+ekrUkiVLXj5z5kxXfzMAAIBmhVAB1IMBAwbsUKvF17/+9e/rKVHvvvvuI08//fSf1EVKzeL+ZgAAAM1CnY6pAGqiuY2pqIxaKH71q18tKyws/HstqwVDj6RNSUnZbDcAADQbjKlApGJ6TEXPnj3f92eBaunQocMn/myzR5coAADQ3NVJS8W1a9daaeqtSywpKYn3N41pu3fv/puXX375B5rXI0a/9rWvLbEVKMdL2s2+pSIcT4kCgOaLlgpEKmZaKhRCqireH1J/+Jgvf/jDHx7w/8rM//t//29IRdtQ4muWaJsJnhIFAACamxq3VHjbt6wohXullVoqvE1ifvC3/i5++MMfbr1+/XorvaDl7NmzZurUqRN79OjxB38TlHfdS9qXg60UKi6Bt2zZ8pq/XbOzb9++4atXr/65ukRpmRfnAUDTVlVLBVATTa2lojahooX7n0VTdX3yuz+18i6i47xNYj5U7N69e+S//Mu/LLrzzjuNFyTMjh07zMiRI18cMWLEi/4mKK9UXZy8UHElrPuT/R+mRYsW1/3tmq2KukSpRcOvRoC+g7yJvrt4eh2qzf8eKfWmMdlCioZDqEBdafahQvQ/iPc/jP0fxQsUCQoVGmvhTeO9L2x/q9i1bt26pe+9997f/N3f/Z0NFcuWLTNdu3b98Ac/+MEofxME6N+gWiOCwcL9zxNN/7PUt4qeEjVp0qSn9Xhau0GM0/eL928lTqFCgULFrwJuyoUK73vmuvu+KasB6lZVoYIxFaiOpjqmolahQj/mLlT4wSJeoUItFbEeKvT38eyzz+66ePFiu8WLF5v27dub7373u+bChQtm7ty5X/XCBY/fDaN/g/6P/LVgqNDUKzH3w6+xFQoXrkuUxl7oEbSx2iXK+/fRQjcv9B3j/f+V4K0iVKDGwkKFbmDYmxj+eqDOECoQqZgKFaIfee9/FNftyQYKQkVZH/nly5f/62233WZ+9KMf2XW//OUvTWFhoRk7duxzI0eOzLErEeKHiuvevx0XKq7ofyAVf5OYox+kgoKC7/zbv/1blvf/WpJeoDdmzJjnY7FLlH6Q/e8btYom+GHCBouyLYCbc6FCU/97xoYK/TB76+gShTpDqECkYi5UePu5u4dx/lRdE2xf57ItYtOvfvWrJW+99VaGdwFovva1r9l1u3btMr/4xS9M7969//sHP/jBw3YlQvRv0L97aEOFfxdRdxBj/odeXaJWrVr1c72RW8ux1iXKDxP2kdXue8ab6rHVhArUiAsV+p5x3zH6kfamMX0DA3WPUIFIxVyocFyo0A88ocKYzMzM//fpp5928cKD0UBt8b5c9PQn3XE1P/vZz+7q0KHDcVsBy4UK/ej7P/b0dQ4Ti12i9J3i/b8T+lHW98y///u//2DLli1P+ZsANzVkyJCXv/GNb8zxZvVjZx8K4f0Y226WKu6HWmHD7gBEiFCBSMVsqHB0AeAFjJbehaG/Jvbs27dvmPcP4M1bb73VaDxFkAZr/+EPfzCTJk3KfPDBB3/hr4YnGCr8VaiAfqRiqUuUWiX0Z758+XLoKXNPP/30n/xqoNq8798Ub6KbFiqhLpZ+qLA/ylpXtjUQmboOFSUlJbYLdWpqqklM1JP7yzt69Kg5ffq0SUnRP3M0BzEfKmBMbm7uc6+88srshx56yPz939sH+IToC0FjK9RtJSsr635/NVBjsdIlyvsh1rtv7I+zAoV+mNUSqDru9qE63A/z4sWLh3gTvQ9H3StDD4Pw5kOhQst2YyBCDR0qtm3bZvbv36+eEv4aNHVNNVTQJ7kOuUeBVnS3YODAgXZ64MCBoXoXgV0AakFdnmbOnPnonDlzHlagUJeo7Ozs7cuXL9+gwOFv1uSp9VPFm7XjJ/x5oMa8izKNxdH4HI39c/+mWvgt6zHfbRfRTUEiLS2twkABRBN+pOuILuxOnjzZq02bNqZfP9vtvRy3Xt1W3B1mIBJeeN28ePHigV//+te/HxcXd0mhdvr06fv1Ij1/EwBAE3fmzBmNq/OXyqjLk1oowtcDjYlQUUf+67/+y7ZSuBaJirgWjPfff3+EnQEipGZPjan4+c9/fsfgwYM3qhXs17/+9XMKF3q8sb8ZAKCJOnv2rO3+5BQUFJiVK1fa+YMHD6rrtZ0HGhuhoo7s2rVrjKb33nuvXa7IoEGD7HTnzp2PqL+lXQDqQGVdonJyctY2py5RANCcqBVCLQ6uaLkqqs/PzzdZWVm2S9S4cePMiBHcp0R0IFTUgRMnTvQqKipKSUhIMJ///Of9tTfSU6H0mFl1gdIjQv3VQJ0J7xKld6ao1UJPjfI3AQA0UWq10A3K4PiKTp06+XNA4yJU1IF33nnHjpHQ/+gKFlW5++677dTbx7ZsAHXNdYn653/+5/733HPPZnWJ0jsuvve97+05dOjQUH8zAEAjS05Oti0OrmgZaKoIFXXgv//7v21A0Juz9Riwqsorr7zi9mGwNupV586dj+gN7uoS1alTpyNqTfOW/y9doupfeJeGikpDCH4OAE1fUlKSHgxjHzPreN/t/hzQuAgVdSA+Pr7Gzwhu3bp11R0ngTqiLlHLly/v//jjj2fTJaphqIuCBk9WVRpC8HMAaPq6dOliH/qSnZ1tbxbk5OSY4uJivxZoXLz8rh6NGzfO/uXm5eXxDHREBY3/+cUvfvHz999/347p6dGjx97Jkyc/3adPn512gyhS1y+QakhqIdi9e7edP3nypHnjjTfsfHp6up2KujrUNz12cv78+XY+Fl8YqNZhaWovkELTVtffXfo+OXLkSOgJkqJHyZ46dcr07t3bLvNG7ealqX530VIBxBC6RDWMYD/pIUP0Mucybp1KkHvmvMrx48f9tWXUzeHAgQOhes1XJLiNjlcRXYhUVq/z7Ny509Zru2D3iuB+7rPqQgdA/dP3SXhg0LK+R3r27GkLgQLRgFABxCDvB4guUVEiLy/Ptia4bkpe4LMX987q1avNkiVLQvWa1z6OLv4XLVpUbhvXOhGkZ9uvWLEiVB88h4LMlClTzKpVq2y9tlP3Chcs9Ix8rde4MfdZ1bUKAACHUAHEKDWZeqFiHk+Jajy64++6Ro0dO9bcd999dl4X9+6CPjU11XabUtE2on1ci8aGDRuM99/Lzut59cEuVkG///3vy9Xt2LHDTnUeBRnRE+zcNjr+m2++aecdnVefUdtowCgAAA6hAohxdIlqPO+8846d6mK+devWGuNil8UNvuzfv79p06aNuXjxou1X7agPtQLB22+/bZenTZtmX4SlLhELFy6064KeeuopW+dCgwsif/rTn+xUdC5xL+oMnk/69OljMjIy7HE0YBQAAIdQAcCiS1TDcxf2QbroV+nQoYMdt+C6JektunqUpPPRRx+Ve+rLLbfc4s+VPSEmXGXPv9dxwilc6DOolSTo3nvv9ecAACiPUAEgpLIuUWq5oEtU3XMX/507d7Z3/10ZMGCADQHuCVLqcqSnxoS3QCh4OGq5cMIHe1elY8eO/lxZC4X7DAoUvXr18msAAKgaoQLADYJdotq3b1+sQKFgsWrVqp8raPibIULuiS0aq6DB1xpjoefO//a3v7XrHXVxcnVBCh6uq5IGV2swtoobI1EdweCwePFiex4dQy0kDMYGAFQXoQJApdQl6uc///kdY8aMWaQuUb/73e+emjp16p809TdBBLy/VztOQRQs9FQltU60bdvWrnPPoBfVqUUj3GOPPRZq8VAXKZWaUDDReAxRC4fO447BYGwAQHXx8rt6xMvv0JwcO3as37p165a5F+fphXkZGRnT6+vFeU355XdBGhfhujGpW1FF9I4JN7ahW7dupl+/fnZe3P7qpqSWDbUkiAKHnk8vGrC9f/9++zIsUeuFwkJF59Z7Jg4fPmzng59H2+pzXLhwwQ4M12dw4zCCL9py52wKePkdGkNz+e5C42mq312EinpEqEBz9O677z6ycuXKn3/66af2yVAPPfTQi1//+te/37Zt2zp9Gxo/zIgUoQKNge8uRIo3agOICYMHD95IlygAABBEqABQY7ozkp6e/v2f/OQnA91TojSIm6dEAUDdUtdEdUFUN0e9CV/FvRzTUddFdY3UdkFaF75fVcdxddpP5wVqglABoNa6d+9+QE+Jmjlz5qM8JQoA6p6ewrZ582b79nyNeXrvvffM6tWr/dqy4LB161Y7r+309DZHD15w++kt+q+88ordt6LjKEToqW9FRUX2ZZt6GhzBAjVBqAAQMbpEAUDN6aJdocCVyi7i9aLMRx55xD5cYdKkSfYBDG5bvVMmMzPT1k2YMOGGJ8ANHTrU1k2fPt0+Ze6BBx4odxxny5Yt9qWXejP/qFGj7LSwsNCvBW6OUAGgTtAlCgDqh3uimyQmJtpl9x4ZLetx0Hqy2759++y6IPc0OW0n4cvOiRMnzMmTJ0MB5+DBg+bIkSN+LXBzhAoAdYouUQBQPQoKajVwxQWHmli3bp1Zu3at2b59u7+mbnTq1Mm2ggDVxSNl6xGPlEWs02MVvX//Wa+99tp3rl27lqSQ8Y1vfOP7w4cPX+dvUqmqHssI1ASPlEVDqutHyqoFwvsOtV2cHL1df/To0fYFlQoUs2fPtuvVYqE36rvz6NGkwXNWtaxwonfhuDf9o/HwSFkACKMvO9clasCAATv0bosXXnhhrVoujhw5wi8XAERALRsab6HB2eqytGnTJr+m5h5++GGzYsUK3Qi96RgPoCK0VNQjWiqA8goLC/9+7dq1y9yL80aNGvXTxx57LLuiF+fV9d0+xJ6mercPTVtdf3fpwl5jG4ItCHp0bK9evWyoUL0GXOtN+AMHDrSDq9PSyt6Wr2Dg5uVmyzqWe7O+3uLfv3//G8ZeoP7RUgEAN5Gamvqb5cuX99dTorRcUFDwnWeeeWb/jh07MuwGAIByFBzCuyRp2Y2/0FTBQE95UgAIhoTgvNxsWcdyT4vSOQgUqAlCBYAGpVYJdYlatmxZf7pEAQDQPBAqADQKPSUqKyvr/meeeWa8e0rUrFmz9vzqV79axlOiAABoWggVABpVZV2i/vM///ObdgMAABD1CBUAGl1FXaJWrlz5i/nz5/+uqKjoC/5mjUaDIjWgsab0KEjtCwBAc0eoABA1wrpEHf/www//0gsWb7700ktzL1y40N7frEHpUY2bN2/2l2rm8OHD9kksAAA0d4QKAFFHXaKWLl16jx45q+WtW7dO9MJF7R/AHgE9ynH8+PE3PCUFAAB8hlABICq1adPm7OOPP579ox/96K/79Omz83/+5386+1UR0TPY1ZVJ3ZJKSkrsOj2bfefOnXZ98GVPWj527JjZtWtXuW5MrjuUujeF0zp3/CAdV+s0DZ5Hb8DVss7vPg8AAE0NoQJAVOvatev/mzFjxv+eMGHCdH9VrelNsevXr7fz6pZUXFxs573jm08++cRcvHjRzgeDRbhFixaFujStXLnShhRHXaW0Tg4ePGhyc3PtvJw9e9buF1ynALJ8+XI7r+MsW7bMzgNAVXSDoqKbGvVBNzx086M2dKNEN024YRIbCBUAmoQvfelLBf7sDdzdf1cqCgX6Ef7www/NwoULbVemzMxMBRZb98ILL+jt3rbcd999oaCg7bp3726GDBliXwSlY7Rr187uq7pZs2aZjRs32m11zvz8fJOVlWXrxo0bZ0aMGGHrHL31Nj093dbrJVM6v/s8GRkZ5tChQ7X+8QYQO3SDQmO2oo2+B4M3WhBbCBUAYsKpU6fMvffe6y+VCb4t1j2p6fz58+bChQv+2vJ0DHHhRSFBQUDUEjFo0KByx+zUqZM/V6ZPnz6ht+CKttWPsM6tu4FdunQxly5d8msBoPHpDdv6bqoOfSdu3brVXyr7jtNNE97MHRsIFQCaPF2o64fLleCF+83ogj47O9u89tprdvxETanlobrUyhGkILF48WJ77sqCDACIbnroZkZF3Z7UvaiicWHixpGFj9vSdm4f10KqY7ui9eKmos/gboRovZYdrdu/f7/9HlWdtlMJbiPBcWTBz+q2dX+W8M+L6EeoABATOnbsaH/wgvSDtX37dvPEE0/YLk3q/tS2bVu/9kZt2rQxnTt3LhdgVCQpKcn+mAZ/BIuKivy5iq1atcp2l9K5U1NT/bUAUF5wLJduQqhFwNHF+JQpU+z3jcaF6UaFu1jXxbtrOdCNC9WLLuw1fszts2lT2cP11KVK34kqTnAcmD7Dli1bQvUap6axZJVxY8kcbevGkenc+gwu0GhbPb57w4YN9rO+9957ZvXq1bYOTQOhAkBM0JiIc+fOmZycHPtDq6kGavfo0cOOi9C6devW2e5PlRk4cKAdl+GOoaK7c6LuATqHWj2Cx6+KukvpB1Tb68ezfftGeRUHgEaii3/3XaISvHPv6O59cCyXpsHuSLrIV4upxnHpxoim7kJeN1JGjx4dugHiWnF1YT9z5szQPnpstqOHTGiMl7thUhFXr3FlGksmPXv2NP3797fj0ILncvRnCx939uSTT4YCjag76SOPPGLrJ02aZMNTRX8niE6ECgAxY/bs2aEWgQceeMD+COrHa+TIkXbd/fffb3+Ae/fubZdF23fo0MHOq1/w9OnTQ8dQy4WrE/1IqoiOox9qt622C2+N0I9mv3797LwuCvQ5gscDAI3l0sV6kC7cnRMnTpiTJ0+GgolCgd6vI/rO0RPpwrsSqXXAffdIcMxD+PdUOD24wlFw0M0Rd3OlKhWNO9ONmrfffttfKrvR4sKIttOy9kPTQKgAEFPUmqAgEfxBdesUMlxxVBe846YfOre9BjCG340LP5aWRdu5eUfH0jG0vasPPx6A5kv/v+v/f1fq4v9/PSDCBQN9p6g1QV2N1EWqOnf9W7du7c9Vj7p9qvsnQKgAAACIUmoRDY7PUotD8KESGgfWt2/fcuEkeANDQUUtqGPHjg2NxVD3qWDrQk0GRP/hD3/w58paPFRcdyyNXauMWmF1/uC59uzZYx/jjeaBUAEAABCl1EVI47PcWK7wl2Q+/PDDZsWKFXbQdPjYDI3HcOs0zkLdiUQPp5g/f74dOK2isV3Vpa5V7lxz5swx06ZN82uMue2222xwCH4GR+FGwcaNO9Mx9LAKfX40D4QKAACAKKVukhrL9aUvfckuP/XUU7blwY39UivB0qVL7UMnRK0FrgvTLbfcYqeiblCue5W6f2ofbXfrrbfawdGiYwbHlEn4Y7M1XkwtIzJ37txyrSL6LBoALjp2+FgyDQqfPHmyndfn1YtHXStHRePOtMw4s6aDUAEAABDFKhp/FRz7pXWuXnXaXrSN6xLlAoWjZa0Pjg1zY8GCtE04nUPrw7cVBRbV6TO4zxrkPpPO6z6nVLStlsM/N6IXoQIAAABARAgVAAAAuCm6I6EqhAoAAADcFN2RUBVCBYCYoMcY6okjNXl0YnXoCSc6bm3U12cCAKChESoAoAK62Nfz129Gb3vNzc31lwAAiE2ECgAxQU8ZcU8kuRm9FEpB4a233vLX1I+afCYAAKIZoQJATFA3Jb0IytHyzp07bYtE8M2ysmvXLvPkk0+aN954o8KuSa7Lk/a/ePGiv7aMzuHOpW0079YHl8Vt56heKtoWAIBoRqgAEBPUTUlvlBUFhcWLF5tPPvnELp8+fdpORXUKE3qL7X333Wf279/v15Q5cOCAmTFjhg0T2n/9+vV+TRmdQ60cx44dM0VFRfY8emOtlk+ePGn3dUEl+JlE+1W2LQA0Nn3/qdyMu7mC2EKoANDk6cdLd/ZdudmPWXFxsenevbt9u6u6HwVfuLRnzx4zYsQI2yVJL2favHmzX1NGIUJvkdW+KnqzbbhevXrZuoyMDNO+fXu7zm3bp08fe/7KuM+lbQcNGnRDqAGA2tI4sfCW2fqgmyW6aYLYQqgAEHO6du1qzp07Z/Ly8m74gd2xY4f54he/aOf1ZthDhw6VG7Ct+eBbZG+55RZ/7jNf+MIX/Dlj2rVrd8NyVYIBp3///ubUqVP+EgBE5re//a05fPiwv1Rz+k5UASpCqADQ5Om56WpxcOVmz1FXK8Ts2bNN3759zcqVK22XI1FgUIj46KOPQq0ealmo7wHbAFAZN/bKtci6cVjhy0HqohRep3l1rVTrp+ocdbF048uCrby64eKK2959DkffmarT/lV11XSf52bboWkjVACIWWoVyMrKMvn5+XZZ4UFdjoLuvvtuO8YiKNhy8fHHH/tzAFD31I1I3TDdo6tXrFhhL9Ddslpc3UW/aH7r1q12Xvu5myYVUUCYMmWKHf+lcWIaA+ZCg1o0tm/fbosT7NaksLF8+XI7r9CwbNkyOx8u+HkuXLhww8Mt0HwQKgDEHHeHT2XDhg1m7Nix9u6ZwkN6enq5Vg+Nb1BrhbvjN23aNDNnzhz7Q60fc3WXAoDaCH4XqQRbAYLUgjpp0iT7nTRz5kwbKNzyE088UW7sVWpqqsnMzLR1EyZMCN000U0UjdlSt0rVyZYtW+x3nsZwubFcwYdHHDx40I4Nc9sHqRvpwoULbZ22Ce8q6uizjR492m6nwhu5my9CBYCY0KFDB/tjK61btzZt2rSx8/qh1Y+p7p7pMbIV/eCNHz/eJCUl2Xltr4HaOoa6Tz311FP2R9nROXQup6rl4GeS4HGkd+/etgCIbWpBde+z0XdP+HKQ1uviXi0J+/bt89dW7MSJE/ZJcy7UKEQcOXLEry37vqqMzqMQpPOoW1OXLl3MpUuX/NrP6BjqZkrXp+aPUAEgJigsuEHQ+jHUk51018ytU73WVUQDs4ODE7Xs9tV+mnfcOqeqZU3d+SV4HNF5goPCATQv7vvDleB3RW2tW7fOrF27tly3perq1KlTuSARHliCFBLUXeq1116z3Zoqo++4WbNm2S5W6mpVWWsMmj5CBQAAQDOgFgo9sloPolCXpAEDBvg1ZTp37uzPlWnbtq1tcQ0Gm+CNjqqsWrXKjklTV6uqWjREYUldq9TVdPfu3f5aNDeECgAAgGZAF+8a26AxX+rOtGnTJr+mTI8ePcw777xj6+Thhx+2A7/dYG+V6rYkqAuWxqRpn9WrV4feyRNO49HcsTVeI/xhGGg+CBUAAABRKnzsVVXL6tq5dOnS0LgxjQcLjtVSF8/hw4eHxpRpHIS2V9iQjh07hro8VTSmS+dxY8I0UNx1C9U5Ro4cGaoLbhd8l4+6QdVFFy9EpxalpaX+LOrauHHj7F9uXl5eC7sCQLVduXIlSeXq1auJrkydOvWg6tasWWO3AaoyceJEO12wYEFqfHx8qVcuJyQklHjTcsVbd0nFbgxEiO8uRKqpfnfRUgEAAAAgIoQKAAAAABEhVAAAAACICKECQEzQE03cW7GrUt3tAADAZwgVAGLC2bNn7eMMb6a62wEAgM8QKgAAAABEhFABICaVlJSEXsp09OhRf+1nVL9z584KXwZ14MABu1712g4AgFhHqAAQk/QG2IMH7aPjzfz5821QcM6dO2frL1y4YE6ePGlmzJgRChYKE1u3brXzqr948aKdB4CGpu8t992lmyMV3SABGgqhAkCTpwt+Xey7Et6yUBG9DXbcuHEmLS3NPPnkk7bVwTl06JB9Q6zqtM2IESPM7t27bd3+/fvN6NGjbZ0Kb4cFUN+C328qFT1M4vDhw7ZUh45x/Phxf+kzOm51vj+BihAqAMSkxMREe1dPd/mKiorM+fPn/RpjBg0aVC4sDBkyxIYJSU1NNStXrqTrE4AGk5ub68+V169fP1tqSsdbvnz5Dd9hekiFHlYB1EaL0tJSfxZ1bdy4cfYvNy8vr4VdAaDarly5kqRy9erVRFemTp1q+yutWbPGblMTChCvvfaayczMtD+k2dnZpnv37qZz5862/sSJE7YuuJ2ju3cqGRkZdll38rZs2WLeeOMNs3TpUlorotTEiRP9OSA61Oa7S/RvuaJ99b3Uq1cv+x2k1gdRC6qj+lOnTpnevXubnj17+mvLjnfffffZ779Ro0b5a43JycmxLbFuW33X6caLunoGb7YEu1mpdcQdX+uDy0GurmPHjiYlJcVfi4q4764FCxakxsfHl3rlckJCQok3LVe8dZdU7MZRgJYKADFnz549tsVBwUHdm3r06OHXlFFXp+AdPP0wB+8G6odV+40dOzbULQoAGlpVLQuLFi0KPR5bravBcWMyfvx4k5+fXy4ghNN4sk8++cSOHQuOLVM40M2X7du32zqNS1PrbXA5eNyCggL7GUSfSctofmipqEe0VAC1V58tFZrXj57GTegH8MiRI3YbV7dhwwa7fO+999quUcXFxWb69Om2y5S78ydvvvmmmTVrFi0VUaqp3u1D01aT7y5dpAdvTIR3vXT0b1nfV45rCQi2LARbKvQ9pYt31+Kq87z44otm9uzZdtm1fChorF+/3mRlZdnvt/CWCt1c0XpZt26dvbkydOhQe6533nkndDyFhN///vflllu3bm0/i86tQPLCCy+EjjVnzpzQOXEjWioAIIp16NDBtk6IfjDnzp1r59UFSj/Wrk7bjRw50jz11FN2WT+iLlDILbfcYqdCoAAQjdyND138qyi46AEU4fT91rdvX3uDpDK60aKQonFn6gbl6KaLowARvuyoJaVLly425LjPI7pZg+aFUAEgJujiP9iPV8FCd9G0Lljn5jVVve7KBe+muf1UCBQAIuG+Z6rznRLczrUk1ESwpSOosm5QWtbYM7XwHjt2zF9bNx588EF7AwfNC6ECAACgGWnTpo0dhB0MIioV0U2TmTNnhsY8OBof8cQTT9guVBrM3bZtW7+mZpKSkuw0/LNwU6b5IVQAAAA0IwMHDjQffvihHSPhuhyFt0QEuW5QwfEdeoDFxo0b7b4aTxF87HZNqOuTWn81jsJ9FnWnQvNDqAAAAIhilXVd0lgw141Ig7dVRK0PGgvmxoqp5SLY3aii46kblNa77dSaoPFlcv/999sB3O74wXPJzZb1tDy1eji33XabP4fmhFABAAAQxXSBXxE3/ks0ziI41kLBQvXaV2PDgt2NKjqetg/vluT2d8d2xw8/182WRa0hOpaKWi/Q/BAqAAAAAESEUAEAAAAgIoQKAAAAABEhVABAE6Onp+gttTejp71U9cQXAADqCqECAOpYVY9vVBiobiioTG5urn1L7c0cPnzYFgAA6huhAgDqmC769Rbaiug58NUNBQAANBWECgAxQS0DeuFSSUmJ2blzZ4WtBcePH7frVa/tHM1rX9UFX9qk/d2xwlsmjh07dsM6HefNN980ffr08dd85sCBA6HjB88tVX1muVm94/58N9sOAICaIlQAiAlqGdi8ebNZvXq1uXDhgjl58qSZMWNG6OJaAWD58uV2Xhf4y5Yts/OifQ4ePGjnT506Zae6kF+8eLH55JNP7PLp06ft1NHLnnbt2uUvlSksLLQvo2rXrp2/psyiRYvM1q1b7by20bldsNDnmzJliikqKrLLL774op06wfqLFy/az1RRYAj++YSWEqBpcTc2RDcRdJNA3DqgsREqADR5uoh2d+Crugt/6NAh+8ZYvXxJF/0jRoyw3ZGka9euZuHChbYuIyPDbut+tLWNtncvbpLi4mLTvXt3M2rUKLtOL4kK6t+/v3njjTfKfRa1Urg33Dq6UFDIyMzMtMfRVJ9lz549tn7Lli32M7vzP/XUU3a9E6zXZ9FUwSScxlY8+OCDoT9D+IupAESvgoICe1OkIupOCUQDQgWAmDFo0KByb4sdMmSI2b9/v53X22QVAHRHX3cB9cbXS5cu2TqFj5ycnHJdn3Thf+7cOZOXl3dDNyfR8XSx7y7wtW/w7beOWj4UQIL09tv33nvPzp84ccL07t3bzkv4/qpXq4sLVGpROXLkiF/7mQEDBthQo4uTykIXgOik/6fHjx9vbwiIviN4KzWiDaECQJOnC213B14l/MK7Muqy1LZtWzuvIKGuQxpgre5RQbr7P3r0aBsQ1FVJFBpmz55t+vbta1auXGkv1sOpVSI/P992ZVL4GDZsmF9zc+5z1VSnTp1uaA0RXYBkZWWZ1q1b225f6uIFIPrpZoHGaKk7pbuxoXWVcS23+k5z3SiBhkCoABAz1I0p+COrH+h+/frZ+VWrVtmLbnU/quiiXN2FVCfBlgm1Pmg/hYdwCh5q5diwYYPtKlXRncWOHTuGWkscXQy4z6Vw8fHHH9t5cV2yHNUr2ARDVXhXLEefR/UzZ84MjeEA0PRU1uVJNwt000DjqzTOKjg2DKhvhAoAMUNPXdKPrO7irVu3zo6LGDhwoK1T1yhd/KtOA7Pbt29v14vWqbjWCAUMdzdQRfuNHTvW1oX76le/at5++23zwAMP+GvKUwBQNyp1r9KxNA1+rocfftgGHrV06Py//e1v7XpH9StWrLD17vNU1L1JQcjVb9y4sdLPA6DhBL9HKvt/VzcCdFNC3TUru2HgrF+/3sydOzc0vurOO++kVRINhlABIGZoQLQb6KyWgOnTp9u79zJp0qRQ64DGQowcOdJ06NDBLqs1QW699Va7j6gbUZs2bey8fuj1I+5of0ddsaZNmxY6tqglxB1b1I3KtY5oqmX3udS6sXTpUtutSefX59Tx3f6uvkePHnZZn1WfTTQWw43HCJ5PfbODnwdA86CWTD2UwYUUjbn66KOP/FqgfhEqAMQUN/5CAx3dhbtoXutUp20UFNzYDM2H7xPcPvzuodYFhdcHj+24c4RvK+GfWfPB/TUf/CzuM6pFxT3lyR1DhSc/AdEh+P+lSvD/67qgh0AEH/QA1CdCBQAAQDOhrpzBoMJNBDQUQgWAmKDuPxUNwAaA5kJdLTVQW+OvXBcooKEQKgDEBHUrqKhrEQBEu/BxWMFxW8F5fcfpJZ5uXFW3bt3sFGgIhAoAAIAoprAQHG+hbk1OcF708AbX9YkHMqAhESoAAAAARIRQAQAAACAiLUpLS/1Z1LVx48bZv9y8vLwWdgWAarty5UqSytWrVxNdmTp16kG/Gqi2BQsWpMbHx5d65XJCQkKJNy1XvHWXVPzNgYhU9d21Zs0auw1QlYkTJ9ppU/vuoqUCAAAAQERoqahHtFQAtcfdPkSqqd7tQ9PGdxciRUsFAAAAgJhEqAAAAAAQEUIFAABADNu7d685c+aMv1S/jh49as+H5ocxFfWIMRVA7VXVLxmoCcZUoCHVx5iKAwcOmK5du5Z7AV5dysnJMaNHjzY9e/b019SewsmRI0fsC/sqsm3bNrN//36TmZnpr0E4xlQAAACgzi1ZssScPXvWX4pu+pyFhYX+EmIJLRX1iJYKoPbq424fYgtPf0JjqOvvLt3Zz83NNSNGjDB9+/YNtQCoRWD37t2mTZs2ZuDAgSYxMdGuF7VsfPTRR6Zjx443tBgcP37c7Nu3z+7Xr18/2/rhWirk8OHDpnfv3je0WqjL0qlTp8rVuVaJXr162c8yaNAgGypee+21ci0R6vKk4+rz6Bi0VFSNlgoAAADUO4WGGTNmmIsXL5qioiKzbNkyv6YshGzdutXOb9682RQUFNh5UTCYM2dOaD8FAWfXrl22qG7+/Pn2HM6iRYtCrQ8rV64M1blWCYWeyuj82kcOHjxY5bZo2ggVAAAAjUB3+hUCXKlosHRaWpqdDhkyJNTqsH79ejN37lwzatQo9Yowd955Z+hCPzU11bYCaL8JEyaY/Px8u17HXrFihVm6dGloP20bpHWqS09PNx988IFdpyDSrl270DFnzZplNm7caOtEwUTbqy58zIfOqfNnZWXZeh1fLS5onggVAAAATYi6MKk7kQsjJ06csN2dRN2gVK8uR+rm5KhVQd2Tghf+wS5TCi2OujjpmKLuSuLOpRBx6NAhu0769OlT6QByd87geTp16uTPobkhVAAAADQCXYzrDr4rlV2c30z//v1tEJB169aZtWvXmu3bt9vl+qCWCUetGIAQKgAAAKJYly5d/LnPqAUgGEg0eFotFMXFxWb27NkmIyPDDBgwwN/amA4dOthWhpKSEn+NKTdfGQ3o7ty5c7lzqVRHUlKSOXbsWLnzaCwHmidCBQAAQBTTU5/U8uBeGjdt2jQ7UFuDoF23JFFLh7omufWbNm2y60V1Y8eONdnZ2bYuLy+vWo9+1ZOlPvzwQ/uEKHcuda2qDoUhjQNx59QxFHrQPBEqAAAAotj48eNNjx497J1/0YX6woULTevWre1yt27d7FRjFzQQW+vVwqD9gl2VNAh78uTJdl5BxQ3U1lQtGY7mXZ2OOX369NCyjuu2DW7nhK/T4GwV0WNr9ZnC90HzwHsq6pH3PxHvqQBqifdUIFK8pwKNge8uRIr3VAAAAACISYQKAAAAABEhVAAAAACICKECAAAAQEQIFQAAAAAiQqgAAAAAEBFCBQAAAICIECoAAABimN7UfebMGX8JqB1CBQAAQBQ7cOBAvV70FxYWmrNnz/pLQO0QKgAAAKLYkiVLuOhH1CNUAAAARKlt27bZ6a5du2w3JUctF6rbuXOnKSkp8deWUcuG6oLbO8ePHw/tF976cfToUVunaTgdK7xO+7uuU6qrz9YURD9CBQAAQBOi0DBjxgxz8eJFU1RUZJYtW+bXlIWQrVu32vnNmzebgoICOy8KAHPmzAntt3v3br+mLLSoqG7+/Pn2HM6iRYtsFylZuXJlqE6tJ1qfm5trlxHbCBUAAACNwN3hd6WiO/1paWl2OmTIEJOSkmLn169fb+bOnWtGjRplxo0bZ+68887QhX5qaqrJzMy0+02YMMHk5+fb9Tr2ihUrzNKlS0P7adsgrVNdenq6+eCDD+w6BZF27dqFjjlr1iyzceNGWycKJtpedcnJyf5axCJCBQAAQBOiLkyHDx8OhZETJ06Yjz76yNYlJibaenVT2rdvn10nalUYNGhQuQt/besotDi9e/e2x5RTp07ZqTuXQsShQ4fsOunTpw9hAhahAgAAoBHoYlx3+F2p7cV5//79bRCQdevWmbVr15rt27fb5fqglglHrRiAECoAAACiWJcuXfy5z6jVIRhIevbsaVsoiouLzezZs01GRoYZMGCAv7UxHTp0sK0MwUHd4QO8K9KmTRvTuXPncudSAcIRKgAAAKJY3759bcuDe5rTtGnT7EBtDcJ23ZJELR3qmuTWb9q0ya4X1Y0dO9ZkZ2fbury8vNDg66oMHDjQfPjhhyYnJyd0roqeDgUQKgAAAKLY+PHjTY8ePUxSUpJd1oDthQsXmtatW9vlbt262anGSGggttarhUH7BbsqaRD25MmT7byCihuoralaMhzNuzodc/r06aFlHddtG9wOIFQAAABEMV3Yq8tRv379/DVlXaJcV6TgejdOY+jQoaH9gtRNSusUTNxAbc0Hx3No3j1pSrSdlt1x3bbh2yG2ESoAAAAARIRQAQAAACAihAoAAAAAESFUAAAAAIgIoQIAAABARAgVAAAAACJCqAAAAAAQEUIFAAAAbrBz505z/PhxfwmoGqECAACgnvzLv/zLIn+21rZt2+bPRaakpMTs3bvXXzJ2XscOL0ePHvW3qHsVnU/lzJkz/hYV02eqyfZoeIQKAACAevDrX//6x7t27RrrL9Zabm6uPxeZ4uJis2LFCn/pMydPnqzwHHp7tt7cXR/2799v3nzzTX/p5g4fPmz3kYsXL5oZM2aYAwcO2GVEB0IFAABAHXv11Ve/95//+Z/fiI+PL/FX1TnX8qA79+GtC+q2FLyrr+IFHFvntk9JSTFpaWlmyJAhdr3mVXr27GmXtZ2j8+gY7nyupSB8Oaiiz+bO0b9/f9O9e/fQcnJycrk/T0WBQfto21GjRpm5c+eajRs3+jWf/XnVZUvHcYLH1NTR59W24Z8PtUeoAAAAqEPexe5shQoFim9/+9uZ/uo6t3r1anPw4EE7P3/+/NCFuC6Sly9fbufl7Nmz/lzNBFsvCgsL7fKxY8dMUVGRWbx4sSkoKLDLaulQy0HwYn7RokV2H1m5cuVNWxV0kT9lypTQn2f9+vUmLy/PzldEwefQoUN2Pvjn1XmWLVtm5yX4d3Tq1Ck71efU5//kk0/s8unTp+0UkSFUAAAA1JGtW7c+6YWKZzU/adKkaX/xF3/xn7aiArqQ1p1yVyq6218V7/hm3Lhx9u79k08+ae+8i7oKPfjgg6FWAF2AqyUg2CLhWiNqolevXraVICMjw7Rv396u07I+Q58+fWz3KlGLQLt27UxmZqY916xZs8q1KlRky5YtJj09PfTnycrKssepbKC4wsN9991n57t27WoWLlxo99NnU9hw++3evTt0TBXR51QriT671qnFBpEjVAAAANSBHTt2ZPzyl7/8Z83/wz/8wzPexeobtqKeJCYm2rv0usBW68H58+ft+gEDBtjxCmpJqGlQqcoXvvAFf87Y0BC+7LgWAReWdGHvWhUqc+LECdO7d29/qezPlpqaavbt2+evKRuHoeOpBWPJkiXm4Ycftuu1rf6c+rtQsNI4kEuXLtm6ESNGmJycnHJdnxRCzp07Z49D16e606K0tNSfRV3zkrH9y/X+0bawKwBU25UrV5JUrl69mujK1KlTy9qwgRpYsGBBanx8fKlXLickJJSoS0qweOsuqfibA7Xy7rvvPuJd6L6s+YyMjO/+9V//9a/Dv7vWrFmjSY1NnDjxhn3VhSc7O9vece/cubNdpwtztQ6I6l2XpZkzZ5p+/frZC2h1kwo/VmXrg+fVhfno0aNDLRxVLevCXwFAYyCC0vyWAnHbuM8bfjxRKLr11lvtgPHgMdu0aWMGDhxow4QoSLz66qv270L1ClSTJ08OHUt/vtdee80GidmzZ9t1oqChYKHwolaLaKG/d2lq3120VABoMrwfiA/8WaBakpOTP/ZngXrjXZyO/Kd/+qcNmn/00Ud/PHz48LW2oh7t2bPHXgzrolzde3r06OHXlNEFty7iFSi2bt1q13Xo0MFO65su+hV0dP5gqYq2V7ctx4WiO+64w1/z2UBthQwXKGTVqlW2u5T+LvR3Ek7hwoWXYMuEuj1pv/z8fH8NIkFLRT2ipQKovYpaKlS8dZq28gr/X/n+z//5P3Y0pO5q2RW4QTwtFagnChTPP//8y9euXUt6/PHHsx955JFFlbWyRtJSofEGTseOHc0tt9xiWxe0Xo9YPXLkiK3TxbMunN0F+jvvvGO8z2RbKkTHGjt2rO26FLyTX5ctFQoEGiytLlGutUJdm9y2Et5Soe5LGuyt7kqdOnWyrQ266FdgEm0vFYUTnbtt27Y2WOmYapEYP368PZ/bT39Hv//9721Lhc6lLlmibmMKNLRURC5u3rx5/izq2ksvvWT/cvUlY1cAqLbr16/HV1HiWrZsaShlZevWrfYX6Ktf/eqaiuopZY3y3vRaXFzcNU2DxVt3VcVuBNSAdyGf4gWK//Auoj/30EMPvfjNb35zZgXfV/Gvv/76NG0/ZswYu19NBccrSOvWrW1I0EW3nlykMQRf+cpX7OBpjReQjz8ua6TT+rvuusvOi+7ya59u3bqZz33uc/7aspaCYKuA6LxuXatWreyxk5KSbrrsXfCawYMH28+pi3m1XNx+++2hbcX7f8+e031e1Y0cOdJu74Uy4/19lmt10PYKUxpwHu6ee+4xXniz+7lQ4j6LnnylY6qV5tFHH7WfrUWLFkZPftL2+vPp7yiaqCuXeAHql/pz+99TUf/dRUtFPaKlAqg97weile72qVy7dk0tE/aOnz+f4G3C/1e+WbNm2YfPL168uOzRLqhIqX58vQuKy+4un7esu3/2Tp+W/e2AalGgyM7O3n7+/PnkYcOGrcvMzJyg9e57y31nqUTaUoHYwpgKAKhDLVq0KFVp2bLldX/+un935qq+XCmfFf+vzFRURykr+lHWvx3v39E1/Vvy/rrsvylN/QJU24kTJ3q5QDF48OCNLlAAsYxQASAquRChi0BdDPrNvFd0d1kXiMG7NbFe/L8yNetXWE+xd/Q0vax/Q/r35BfbhcAPF0C1KFBkZWXZQHHPPfds/s53vjPerwJiGqECQFTyL/hsmPCDRShQaEr5rPh/ZaaiOspnxQ8Ymte/JRss/Ok1/68QqNKZM2e6KlCcPHmylwLFrFmzHvUCK4P8AQ+hAkDU8i/+ruhCMHAxSCtFWPH/umipuEnRvx0XTv1/S7Z4oZXuT7gptUz86Ec/2qRA0aNHj71qoSBQAJ8hVACIWrrY00Wfd0EYutusH/Hwi8VYL/5fF6Gi+sUGUz9Q0PUJN6VAoRaKoqKiFAWK7Ozs+9u2bVt3r6oGmgGe/lSPePoTUDe876kW165dS7h+/Xqct6jvLW6IBHzzm988p+m//Mu/lH/uJMKFBvzTQoHq0pOcFi5cuGnfvn3DO3XqdMSb/3JycnKxX30Dnv6ESDXVpz8RKuoRoQKoWwoXfqDg/6mAv//7v7+i6W9+8xs9aheVs6GCMIHqUjhYvHjxy++///5IBQq1UHTu3LnsLXOVIFQgUjxSFgDqmS4GdZdZA2wpnxX/r0eD2yusp4SKnvREoEC1/fSnP92gQNG+ffvi6gSKWKM3U+/du9dfQqwjVAAAAITJyclZ++677z6isRM//OEPH46FQLFt2zZ/rnr0turCwkJ/CbGOUAEAABCgQPHWW29lKFBkZWXd36tXr5i4HZ+bm+vPATVHqAAAAPC99NJL8xQo4uLiLj3zzDPjGztQuC5GJSUlZufOnbY1QeuCjh8/bterXts5mte+qgt2U9L+7lhHjx7111YueJyKtq/OZ6uoDs0LoQIAAMCjQOGVLAWKZ5999tGUlJTNflWjURejzZs3m9WrV5sLFy6YkydPmhkzZoQu0HWRv3z5cjt/4MABs2zZMjsv2ufgQTtG3Jw6dcpOFQAWL15sPvnkE7t8+vRpO61K8Djz58+353HOnTtXrc8m+rOg+SJUAACAmPe73/3uKQUKzX/3u98d3xCBQhff7i5+VXfyDx06ZNLT001aWpqeLGlGjBhhdu/ebeu6du1qFi5caOsyMjLstmodEG2j7VWnIsXFxaZ79+5m1KhRdp3357TrqzJp0qTQcZ588knbKuFU9dkOHz5sHnzwwdD5e/bsadejeSJUAACAmLZjx46MVatW/VzzU6ZMmTB48OCNtiJKDBo0yCQnJ/tLxgwZMsTs37/fzicmJtowolYBXex36dLFXLpU9pRRXeDn5OSU6/qkEKLWhby8vGp1fRKdQ9uqhaKoqEgvA/Rrqv5sAwYMMG+++aYpKCioNDCh+SBUAACAmFVYWPj3L7zwwlrNK1AMHz58na1oALoYd3fxVYIX51VRl6W2bdvaeQUJdWd67bXXbBekILUcjB492j6hadGiRXadAsLs2bNN3759zcqVK+0Ff1XUXWrOnDn2+B988IG/tnLBz6aAk5WVZVq3bm27RQW7TaH5IVQAAICYtHfv3pE/+9nPbKB4/PHHsxsyUNSEuhPp4t5Ry0O/fv3s/KpVq+yFe2ZmpklNTbXrgtTlSHUSbJlQtyftl5+f76+p2J49e+xxdQyFlB49evg1Zar6bKIQo8A0c+ZMs3XrVn8tmiNCBQAAiDkKFM8///zL165dS1Kg8Mo8vyrq9OnTxw7A1riLdevW2XERAwcOtHXqfrRhwwZbpwHT7du3t+vFjdVwrREKGMFxHNpv7Nixts5xdSoKCLfddpsNHlrWcd577z1/yzJVfTaFGHesjRs3mgceeMCuR/NEqAAAADHlyJEjKcuXL9+gQPHQQw+9GM2BQtq1a2eeeuopO69WgOnTp9sWANEgatcyoAHTI0eONB06dLDLHTt2tNNbb73V7iPqitSmTRs7r9YKDdh2tH84BZG5c+faeQ3w1jauRUTn0fkq+2zuc8j48ePLtWCg+WlRWlrqz6KujRs3zv7l5uXltbArAKAe8F0DVJ8CRXZ29vbz588nDxs2bF1mZuYEv6pOXLlyJUnl6tWria5MnTrVPo91zZo1dpua0N1+jWdwXZjQ/E2cONFOFyxYkBofH1/qlcsJCQkl3rRc8dZdUrEbRwFaKgAAQEw4ceJELxcoUlNTf1PXgQKIZYQKAADQ7ClQZGVl2UBxzz33bNaTnvyqqKYuRBUNwAaiDaECAAA0ay5QnDx5spcCxaxZsx6Npm4jVdFjZqvzgjqgsREqAABAs6WWCT3lSYGiR48ee7/zne+MbyqBAmhKCBUAAKBZUqBQC0VRUVGKAkV2dvb9bdu25dXOQD0gVAAAgGZHT2D6yU9+8rICRadOnY4QKID6xSNl6xGPeQTQEPiuAcpToFi8ePHL77///kgXKDp37nzEr65XVT1SFqgJHikLAADQiFygaN++fXFDBgogltFSUY+4ewigIfBdA3wmJydn7VtvvZWhrk5ZWVn39+rVa69f1SCqaqmozcvvEHt4+R0AAEAjauxAAcQyQgUAAGjyXnrppXkKFHFxcZe+973vPUqgABoW3Z/qEV0SADQEvmsQ6xQovJKlQPHss88+mpKSstmvanAM1EZdofsTAABAAykoKPiOAoXmv/vd745vzEBRmZ49e37gzwLVkpyc/LE/22TQUlGPuHsIoCHwXYNYtWPHjowXXnhhreanTJkyYfjw4etsRSOqqKVCxVunaSuv8P8pqi2+CbVUECrqET/0ABoC3zWIRYWFhX+/fPnyDZqPlkAhfoCwweLatWsKEeVChXfdxf+nqJFWrVqVxMXFXSZUxDB+6AE0BL5rEGv27t078vnnn3/Zu2hPevzxx7O9Ms+vanQKDn6IsK0VLlh404Tr16/He4X/T1EjXoC44oUKlcsuXLhA4c1f9jdrdISKesQPPYCGwHcNYkk0BwrxPld8WKBopakfKOL8zYBqa9GixfWWLVteVYDwQ0UoWChs+Js1OkJFPeKHHkBD4LsGseLIkSMp3//+9/+vAsWoUaN++q1vfWu6XxU11L3JdX1SlycvSCQoaChUeHU8IAc15oeKawoWChEKFH6oKFGdv1mjI1TUI37oATQEvmsQCxQosrOzt58/fz552LBh6zIzMyf4VVFHIcKFCm+a4F1rxWmdV8X/o6gxLzjoO/66FyiCoUKtFlHTSiGEinrEDz2AhsB3DZq7EydO9Jo1a9YeBYrU1NTfPPPMM+P9qqilbk9qnVCo8OYVLNRKwf+jqDFdq3sBItRS4YeLy37YiBqEinrEDz2AhsB3DZozBYqsrKztJ0+e7HXPPfds9sLFo9H0xJuqKFQoUPhdn3TNRfcn1EapFyjsuAoFCk2jLVAIoaIe8UMPoCHwXYPmqikHCkdBwgsVcV6hpQK15ULFtWgaQxGOUFGP+KEH0BD4rkFzpK5OChRFRUUpPXr02Pvcc899uakFCiCW0AwHAACiSnigyM7Ovp9AAUQ3QgUAAIgaehzrwoULNylQdOrU6YgCRdu2bc/41QCiFKECAABEBQWKxYsXv3zo0KGhBAqgaSFUAACAqKBA8f777490gaJz585H/CoAUS7igdre/vYRaX7hcWkB6enpFzXNzc1tbVfgBnqKgR6L5k/tvF8FoJoYqI3mICcnZ+1bb72VoZaJrKys+3v16rXXrwLQBEQUKhQg9FIX95ZIPS6NUPGZjIyM05quW7fuFrsCNwiGCj0qTS910dSvBlANhAo0dQQKoOmrdahQkPADhXupi57DrEDBj5pv0qRJxZquXr26q12BiihQ6PnLelOkQsVlTfX6eb8ewE0QKtCU5ebmPvfKK6/M9r7/L/3whz98eMCAATv8KgBNSK1ChQLElStXEjWgypuPU8BQsHB1diOYp5566qimL774Yk+7AjdQC4WmXpDQGyLtK+gTEhJKvFBRomW7EYAqESrQVL300kvzvJKlQPHss88+mpKSstmvAtDE1DhUeNu38EJEK4WKq1evJrqWCr+1gjEVAVOnTj2o6c9+9rO+dgVuEOj+5Lo+hUKFiur8TQFUglCBpqigoOA7v/rVr5Zpfs6cOQ8TKICmrcahQq0SChN+aaWAkZ+fP2fLli2T/U2Amxo8ePAr6enpP/RDxXUvUKil4oq6PakLlAJFq1atLilk+LsAqAShAk3Njh07Ml544YW1mp8yZcqE4cOHr7MVAJqs2rQq2NaI69evx7kWCgIFaurdd98do9YuhVIVv6VL/6Zs8f+N0eoFAM0MgQJonmrcUuHGUqjoYlAtFlOnTj2kujVr1thtgKpMnDjRTp977rm/atmypVopbAuF6/LkSkJCwiUVuzGAStFSgaZi7969I59//vmXveuHpMcffzzbK/P8KgBNXK1aKlQ8oXnNADXlBVL3GGL+DQFAM0egAJo3upcAAIB6deTIkRQXKEaNGvVTAgXQ/BAqAABAvVGgyM7O3q5AMWzYsHXf+ta3pvtVAJoRQgUAAKgXx44d66dAcf78+WQFiszMzAl+FYBmhlABAADq3IkTJ3r9+Mc/3qRAcc8992z+9re//bRfBaAZitlQceDAAbNt2zZb9u7da86cOePX1D0d350HAIDmToEiKytr+8mTJ3spUMyaNetRnuYHNG8xFyqOHz+uN3eaJUuWmNzcXFtWrFhhp0HaTsGjLhQWFtrja1ofjh49agsAAI1NLRMalK1A0aNHj70ECiA2xFyoWL58uQ0MMnbsWJOenm4GDRpklx21Kih4bN261V8TvXJycsz8+fPN4cOH/TUAADQOBQq1UBQVFaUoUGRnZ99PoABiQ0y2VIjCxKhRo0xaWprJzMw0jz32mF2vLkr79++388eOHbMBQ60A6h7luku5rlIVrZOSkhKzc+fOG9aHC26n82rZcV2mdO7KjqdlfUbRZ77Z+QAAqC96Ke7ChQs3KVB07979gAJF27Zt+VECYkTMjqlQd6TgGIcuXbrYqboo7d69284rgGg7tQKcPXvWzqtoXipap32mTJliVq1aZdfPmDEjdOEfFL6dumB5X8ChYOG6TP3hD3+44XhuGy27kKTPrGX3OQAAaCgKFIsXL3750KFDQzt16nRkzpw5DxMogNgSc6Fi2rRp/pyxF/Lq5hQMF6mpqaHuUAoaatHo3bu3Xa6O3/72t/5cWfeq++67L3Th7ygU6Lyic+kcou3efPNNO+/k5+ebESNG2OM4riVF+7kw5I7ToUMHuwwAQENwgeL9998fqUChForOnTsf8asBxIiYCxUpKSlm7ty5oeCgC3mFi4KCArus+v79+9v57t272+5RPXv2tMs3o7DgWjlmzpxpu1dlZGSYPn362HXOn/70J3/OhM7lPs+RI+W/hxUoxo0bZ4/jAsSpU6fsVJ9Nn1F0HC0nJyfbZQAAGsIvfvGLnytQqGVCg7IJFEBsisnuTwoJGkehcOEu+NUi4LoV1VZxcbE/Z0zr1q39OWPatWvnz5X56KOP/LnPKBSopUEtJUGdOnXy58pCDgAA0SInJ2ftW2+9laFAkZWVdX+vXr14djoQo2J2oLYoXIwcOdJfKh8KwnXt2tWf+8zFixf9uTLBrkfBunPnzvlzZTp27OjPlbVQqIVBRYHC+0L2awAAiF65ubnPKVDExcVd0hgKAgUQ22IuVGgsw7p16+yTklTy8vL8mrKQEaSuTOoWpScwJSYm+muN2bBhg91X77oIUtcj10VJddpGj3w9dOiQXecEg8PixYvtdjqPBmTXdqC1BmnrODz9CQBQ31566aV5r7zyymwFimefffbRPn367PSrAMSomOz+9Pbbb9uL8ODTk4IDuN34BlG3KPcOCA28FoUE7avxDuGeeOIJf67sQl/BJHxMhcKHO5/Or+10HklKSrLT6gp2l9JxePoTAKA+bdy4cbYXKrI0r0CRkpKy2VYAiGktSktL/dnq0VMeVK5evZroytSpUw+qbs2aNXabaKY7+RoM7QY7qyuSxjMEWyJE27lB13r6k2vF0JOitK/WqbuT20ZBxA2Sdvu2adPGDBw40D6tSfvoXBoI7mg7vbX7woULdtt+/fqFjhE8T0XnDraqqCXFBZ/g54hWEydOtNMFCxakxsfHl3rlckJCQok3LVf0wiRemgTc3Lhx4+wXeV5eXgu7AqgnO3bsyHjhhRfWan7KlCkThg8fvs5WAIh5MRcq0PgIFUDdIlSgIRAoAFQlJrs/AQCA6tu7d+/IlStX/lzzX//6179PoAAQjlABAAAqpUDx/PPPv3zt2rWkxx9/PPuRRx5Z5FcBQAihAgAAVOjQoUNDXaAYNWrUT71QMc+vAoByCBUAAOAGR44cSVm4cOEmBYphw4at+9a3vjXdrwKAGxAqAABAOceOHeuXnZ29/fz588kKFJmZmRP8KgCoEKECAACEnDhxotePf/zjTQoU99xzz+Zvf/vbT/tVAFApQgUAALAUKLKysrafPHmylwLFrFmzHuXR3gCqo07fUwHUBO+pAOoG76lAXVDLxA9/+MP/q65Pffr02Tlv3rz7+Q4GUF20VAAAEOMUKNRCoUDRo0ePvXPmzHmYQAGgJnijNhocb9QG6hYtFYiEftPnzZu3XY+P7d69+4Ef/ehHX27btu0ZvxoAqoWWCgAAYpQCxeLFi19WoOjUqdMRtVAQKADUBqECAIAY5ALF+++/P1KBIjs7+/7OnTsf8asBoEYIFQAAxKBf/OIXP1egUMvED37wg4cJFAAiQagAACDG5OTkrH3rrbcyFCiysrLu11gKvwoAaoVQAQBADPnVr361TIEiLi7uksZQ9OrVa69fBQC1RqgAACBGvPTSS/MKCgq+o0Dx7LPPPqr3UfhVABARQgUAADFg48aNs71QkeUCRUpKyma/CgAiFjWhYu/evWbbtm3m6NGjdl5T0dQV1TtnzpwxO3futOuOHz/ury0T3E50PG0vmmq5pKQktL+rAwCgOdqxY0fGr3/96+c0P3ny5KcJFADqWlSEikWLFpnCwkI7/9prr5kVK1aYw4cP22VNt2/fbotz4MABM2PGDPPJJ5+Yixcvmjlz5tig4OTm5vpzZXTss2fP2nlNN2/ebFavXm0uXLhgTp48aY9FsAAANEcKFC+88MJazU+ZMmXC8OHD19kKAKhD9RoqdKGulgBXKrpwVxho166dyczMNGlpaXbapUsXv7bMwYMHTUZGhq2X9evXm7lz55pRo0bZsnDhQhtEquvQoUMmPT3dHm/cuHFmxIgRZvfu3X4tAADNg/cbO9IFiq9//evfJ1AAqC+N3lJx6tQp079/f3+pTPfu3f25Mqmpqf5cGXV36tmzp79kbAjp06dPqMvUzQwaNMgkJyf7S8YMGTLE7N+/318CAKDpU6B4/vnnX9b8448/nv3II48sshUAUA/qNVTowl2tAa4EL+RronXr1v5c1ZKSkvy5mjl9+rRp27atvwQAQNN26NChoQoU165dSxozZswiL1TM86sAoF40ektFmzZtTFFRkb9k7ADqY8eO+UsVU8tEsFVCLRfq0hTsNuW6WlV0PHV10npHXbD69evnLwEA0HQdOXIkZeHChZsUKIYNG7YuPT39+34VANSbFqWlpf5s9Vy5ciVJ5erVq4muTJ069aDq1qxZY7epCV3cL1u2zI6rUDeod955x3z66afma1/7mhk6dGjoSU5q6XA0UHvJkiVm7Nixdjk/P99MmzbNpKSk2OW8vDzz4Ycfmnvvvdd2a1KomDx5su0ypTCyYcMGu53qFWiKi4vN9OnTTWJiol2P+jVx4kQ7XbBgQWp8fHypVy4nJCSUeNNyxVt3ScVujJjnfVfp+6qlX+y8XxXzvIvGi5rm5uZWr1k3BrVo0eK6V0r9qZ33q5oVBYrs7Ozt58+fT1agyMzMnOBXAUC9avRQIQoWe/bssU9j0ngHPb1p9OjRoRAgwTEUopYIN7g6fIyEqPVB4zVU533Jml69etltdDw9YUoDtbW/WkoGDhxIoGhAhArUlALEtWvXErwS7y22uH79ug0XZbXIyMg4rem6detusStwg2CoaNmy5bW4uLgrmvrVzcKJEyd6ZWVlbT958mSve+65Z/OsWbMe5TsUQEOJilARpIAxZcoUs3Tp0lqPwaiKCxV6yhQaB6ECNaEg4QeKBC9MxCtMKFR4VS3KtsCkSZOKNV29enVXuwIVUaAoVZDwQ8VlTfX949c3aQQKAI2t0UNFsMVB3nzzTfu0Jz0qtj4QKhofoQLVpQDhfd8k6jvHm49TwFCwcHV2I5innnrKNum++OKL5Zt0EaIWCk29IHHVDxZX3feOlu1GTZS6Ov3whz/8v8eOHevXp0+fnfPmzbuf704ADa3RQ4VaJjTuQV2VZMCAATe8p6IuKcSoO5Qbf4GGR6hAdXjfTS28ENFKoULfM66lwm+tYExFgPsO/tnPftbXrsANAt2fXNenUKhQUZ2/aZOiQKEWiqKiopQePXrszc7Ovr9t27a8zRVAg4u67k9o/ggVqA61SgS+Z1opYOTn58/ZsmXLZH8T4KYGDx78Snp6+g/9UHHdCxRqqbii7x11gdJ3TatWrS4pZPi7NBn6Lf7+97//fwkUAKIBd/oARCvbGnH9+vU410JBoEBNvfvuu2PU2qVQquK3dOnflC3+v7Em91uoQLF48eKXFSg6dep05Nlnn32UQAGgMdFSgQZHSwWqQxeC7vtGF4P+d80h1fFdg+pw3zXPPffcX7Vs2VKtFLaFoql/1+j/CQWK999/f6QChVooOnfufMSvBoBGQUsFgGilpzu18ITmNQPUlBdI3WOIm8W/oV/84hc/V6BQy8QPfvCDhwkUAKIBoQIAgCYiJydn7VtvvZWhQJGVlXV/9+7dD/hVANCoCBV1RC/bcy/qq4qePqVtAQCoiV/96lfLFCji4uIuKVD06tWLHxMAUSMqQsW2bdtCpb4uuHXcqo6tc1cnFFSmsLDQHD582F+q3NmzZ+22AABU10svvTSvoKDgOwoUGpRNoAAQbaIiVOTm5vpzZRfnixYt8pfqjo67YsUK+16McAoT+gzVCQUAADQkBQqvZLlAkZKSstmvAoCoETXdn9LS0mzRm67btWtnDhwo6yaq7kI7d+60LQmaD9I2Wq96FxY0VYtERa0eeqleRa0EesP2oEGD/KXPHD9+PHT88HOLO09lLRw3q5fgny+SlhIADUP/z+r/1WCp6PuhPoSfuyLB+rr4XMFzVpfbR9+hiMyOHTsyFCg0P3ny5KcJFACiVVSOqejfv7/56KOP7PyMGTPMJ598Yi5evGjn3Y+kLsK3bt1q5y9cuGDrZfXq1ebgQfuE29Bbup1x48aZN998018qox++c+fO2XMGFRQUmOXLl9v5oqIie+7gD6RaU1xAUSjZvXu3nXeC9StXrgyFpCAFoMWLF9s/n5w+fdpOAUQv/b8+f/78ckXfD3PmzKn3i+jwc4eHBi0H68O/l2ojeM7qcvv89re/9degNhQoXnjhhbWanzJlyoThw4evsxUAEIXqNVToB04X/66E/wBW5p133jEDBgyw894Xqhk1apQt9913X+jifP/+/Wb06NGhFo7k5GS7Xj9mCg9ufdAtt9xiunfvXq4FY9euXWbkyJH+Uhl9zvz8fJOVlWWPoeM9+eSTZtOmTbZe+6s1Ra0qqtdUrSBOeP2sWbPMxo0b/drPFBcX28+jP5u2S0lJ8WsANAVq4ezTp4+dV6BwNyIaSvjNiopuXqBp8n5HRrpA8a1vfWs6gQJAtIualgoXPHS378477yx3ka7WBF2onz9/3rZKSGpqqm0BCHZ9khEjRuiRe+WCQ5CCyObNZa3HCg/aLvxiXoOpdbGQmJjorzFm4MCB5u2337bzagEJb9lQOHBcC4n7MynoHDpk39lVTteuXW0rSV5eXo26FgBofPqO0I2D2bNnm/T0dLtOwSLYWqH/r1Uqu6Gi9W6bcDqO1lfU+uGCzI4dO+zUccsVded03DkrOq7jtqloDFqQ+4yV/flQOwoUzz///Muaf/zxx7NHjRr1U1sBAFGsXkOFWg90B94V15pQlcmTJ9uWAdGPVXZ2tu1edOzYMbvOURBQC4C6Jk2ZMiX0o6Z9FRwqG/Dds2dPO9Wxt2zZYr72ta/Z5frmLjqCFFp0QdK3b18bkNTlCkDT061bN3+ujG5W6G3OrtuQukfp5oGji3Xd/NB6t42WRRfqurmiovWa6uZE0N13322nulnhvvs01XJlgUL1wXO6c4SHC30PuW303arv2HDu87vPqO3XreNGel3Yt2/fcAWKa9euJY0ZM2aRFyrm+VUAENWibqC2u+iX7du3myeeeMLeDVQXobZt2/o1ZRRSFCLGjh1bru+wjqF9ROEhnLo7Kajoh18tEOE6dOhgjxe8S7dnzx7b/UratGlT7odW2wVDj+o7d+5cLlCpVEYBSV2t1OUKQNOgVkZ9v6jLUbB7o2tl1cW9K/LGG2+EWlBfeeWV0HeW26ZXr152WV2odKGv47i6jh072jqndevWoe8j1+XJTb/0pS+V+z50XnzxxXLnFBdgXDDR53PfQzq/WkRcC23QsmXLbjiWtlPLMWrvyJEjKT/5yU9soBg2bNi69PT07/tVABD1onKgttOjRw/7Y627dLoLpu5Pjn78XPcitUq4Hza3zt31D4YURxfxCgHqQhXs4uQorCioqJVEx9IdxlWrVpmHH37Y1iuIaDyE7tSpXj+wQar/8MMPQ/UqFYUb/ZC7+g0bNthzAmga1Cqgu/RLliwJdW+cOXOmneo7Rq2TajVVV0kXNFzXyBMnTtipLtofe+yx0I0TcS0H7hiq03w4t851eXLTfv362WmQvn/cZ1y4cKE9psaruc/lAoJ7uIQCi7ZTS6oLL07wWPrz6s/otnnvvffsFDWnQOH95mz3fueSFSi8/0YT/CoAaBKiIlRU1DVIdHffDaK+//777Y9X79697bIGXTvqBuW6Vrk7erfeequZPn26nRcFCLVAOOpmpXWOjuuOLfqB1zaicBP8AVYQ0bF1R1Ceeuop22Li9nf17vhquXDn1tSt191G1YkuENxFBYCmwbUk6IbA0qVLQxf0wS5EegeOCwp6wIQ88MADdqqLc9cNyd14cDcX1LKhY+jmhGtJCHLjunQMd6GvkFJRN9PgO3iC32PBsWDiwoW+85zgvASPpSfwqdVXN3z09+BaW1AzXsjstXjx4pcVKO65557NBAoATVFUhIqbdQ1SvVocXBFNXbei4I+o237o0KHlWiG0Prid9g9fdsd23DnCjyVa1np3fh0/uL/qg5/FncttK8FjuHUAmgZdROuOv4puCLj/xxUgXBci3cnXHX/XkuoofCiEuAChfRRARMeaO3eufeiE6EK/oqfH6fvDtRBoTJYMHz7cTsOFd59y1IWrptyNEJk0aVLo70DlwQcf9GtQXQoUWVlZ20+ePNlLgWLWrFmP+lUA0KREdfcnAGhqLl265M+V+fjjj0MtAI5ChJ4y94UvfME+rjrItVgMGTIkFCyCXT+D3M0I1xJSUdcnCbYguKfNqdul68bkWlldSFHrisZoqJup5oPuuOMOf87Ybps6lrZVi4q6haL61DLhAkWfPn12KlAkJCSU/wcEAE0EoQIA6lCwm6XGW6xYsSLU5cjRS+HUMqGi8VriWjPcehV1gZLwR1g7wfWVdX0SrQ92q9KxXVhQcHGtrOpm6lT22bXswo4GZ+tY2jY8OKFqwUDRo0ePvXPmzHmYQAGgKYubN69mT6u7fv16fHh5/fXXp6luzJgxdhugKq+++qqdpqWl/bJly5bGK9fi4uKuaRos3rqrKnZjxJxo/a5RC8PVq1ft3X89DjpcUlKSbUHwPq+9WNeYq/j4eDuGyu3TqlUr232pU6dO5q677rIX6e6iXy/O9C4uzW233Wa++MUv2vWDBw+2de7cn//85+17bnRcd2x1o9Q6+fOf/2z3d9uJzqvPpc+n4KPz6u/Rje8Q1z1Tn12fTYPI9SJSnVPHu/fee+12Wqc/W/DPoGO5lpKb/R01lGj9rrly5UrSD3/4w7eLiopSFCiys7Pvb9u2LS/7ANCktSgtLfVnq0dfhireD0aiK1OnTj2oujVr1thtgKro+f2yYMGCVO+CqNQrl72LqBJvWq7orh137mIX3zWIVDR+1+jftAZlv//++yO9QHZEgaJz585H/GoAaLLo/gQAQAMgUABozggVAAA0gBdeeGGtAoW6OhEoADQ3ddr9CagJuj+hKlV919D9CdURTd2fcnJy1r711lsZChRZWVn39+rVq+z16gDQTNBSAQBAPfrVr361TIEiLi7uEoECQHPFQG00OAZqozr4rkGkouG75qWXXprnlSwFimefffbRlJSUzX4VADQrtFQAAFAPCBQAYgmhAgCAOrZjx44MBQrNT506dQKBAkBzR/cnNDi6P6E6qvquAWqiob9rFCj0pCfNT5kyZcLw4cPX2QoAaMZ4+hMaDaECVeG7BnWlIb9r3n333UeWLFnysua/9a1vTR81atRPbQUANHOECjQaQgWqUtV3Da2iqI6GbhXdu3fvyOeff/7la9euJT3++OPZXpnnVwFAs0f3JzQ4uj+hOviuQaQa8rtm3759w3/0ox9tIlAAiFUM1AYAIAJHjhxJ+clPfmJbKIYNG7aOQAEgFhEqAACoJQWK7Ozs7efPn09WoMjMzJzgVwFATCFUAABQCydOnOilLk8KFPfcc89mAgWAWEaoABATSkpKzLZt2+y0IkePHtVAW38JqJoCRVZW1vZPP/20qwLFrFmzHvWrACAmESoAwHP48GFTWFjoLwGVU8uEAsXJkyd7DRgwYIcCBQ+VABDrCBUAYkJiYqJJS0uzU6C2goGiR48ee7/3ve8RKADAQ6gAEBPOnDlzQ/cmdXlSlyi6PaE6XKAoKipKUaDIzs6+v23btmf8agCIaYQKADHh7Nmz5bo3FRQUmJUrV9r5gwcPmtzcXDsPVETvTPnpT3+6QYGiU6dOR5599tlHCRQA8BlCBYAmT60QanFwRctVUX1+fr7JysqyXaLGjRtnRowY4dcC5SlQLF68+OX3339/pAKFWig6d+58xK8GAHgIFQBijlotBg0aVG58hXex6M8B5b3wwgtrFSjUMkGgAICKESoANHnJycm2xcEVLQN1IScnZ21hYeHfK1BkZWURKACgEoQKADEnKSnJHDt2rNw7K4qKivw5oMyqVat+/tZbb2W4QNGrVy9G9ANAJQgVAGJOly5dTEpKisnOzrZjMHJyckxxcbFfCxjz0ksvzfvd7373VFxc3KVnnnlmPIECAKpGqAAQEzp06GBSU1P9JWMHZ6vI6NGjzfjx48vVI3YpUHglS4FCT3nyAuhmvwoAUAlCBYCYoHEWap0I0rLGYPTs2dOW8HrEnh07dmQoUGh+6tSpEwgUAFA9hAoAADwKFHrSk+anTJkyITU19Te2AgBwU4QKAEDMe/fddx9xgeLJJ598evjw4etsBQCgWggVAICY9v7773/1n/7pnzZo/vHHH89+6KGHXrQVAIBqI1QAAGLW73//+weWLl36b9euXUtSoPDKPL8KAFADhAoAQEwqKir6ws9//vM1ChTDhg1bR6AAgNojVAAAYs6f//znv1i6dOm/X7hwocN99933L5mZmRP8KgBALRAqAAAx5dSpU91/+tOfrj9//nyHgQMHFjz11FPf9qsAALVEqAAQE86cOWP27r35S5Gru11ltL/e0o3odPr06W7/9E//9K//8z//0/nuu+/elpmZOdGvAgBEgFABICacPXvWFBYW+kuVu9l2Nwsd2j83N9dfQjQ5d+7crcuXL1/r/Tfs3qdPn53q8hQfH1/iVwMAIkCoQKN55513HtGPvL8INAnVDSeILpcuXfrcL37xixVeoOjm2f/0008/SaAAgLpDqECj+Y//+I+ZCxcu/I9169b9ZPfu3Q9fvXo10a8C6l1JSYltcVBXpaNHj/prP6P6nTt32nq1TlTFdXnS9hcvXvTXIlr4gSKnuLi4b/fu3Q985zvf+WabNm0+9asBAHWAUIFGc/vtt+/TdN++fcPXr1+/ePbs2YXe9Cd//OMf/8puANSj1atXm4MHD9r5+fPnmwMHDth5OXfunK2/cOGCOXnypJkxY0alwUL7qV5h4pNPPjHev2G/BtEiLy8v++OPP+6TnJz80eTJk58mUABA3SNUoNF4P+7fnjVr1t999atf/YV+7C9dutT+v/7rvx5fsmRJ/ne/+933f/Ob3yw4duxYP39zoFKupcCVm7UsyKRJk8y4ceNMWlqaefLJJ20rg3Po0CGTnp5u67TNiBEjzO7du/3a8hQi5s6da0aNGmWLtkd08f57Dr3llls+fvrpp59q3779SX81AKAOESrQqPRD/9BDD/1i3rx5I773ve+N+8pXvvKvbdu2PXvq1Kke//Ef//G96dOn7/fW7/nd7373lHeh2NXfDYhYYmKi7fakloaioiJz/vx5v8aYQYMGGS/o+kvGDBkyxOzfv99fKu/48eOmZ8+e/pL9N+3PIVq0atXqf7zgOLVjx44f+asAAHWMUIGo0atXr71f//rXf7B8+fLPP/300xO//OUvv6T13gVfyqpVq37+7W9/++MlS5a8XFhY+PdXrlxJsjsBHgUAtSq4EgwEFdF4iTlz5pjXXnvNfPDBB/7ayp0+fdp4YddfQlMzadKkqbqB4S8CAOoBoQJRaciQIflTp059Yu3atbc8+eSTT+vxj1r/7rvvPuKFjg0KGDk5OWs1HsPuANTAnj17TGpqqsnMzLTdlXr06OHXlFFXJwUPRwO6+/WrvCeeWiucjz/m2jXa3HbbbYf8WQBAPSFUIKq1bdv2zEMPPfTij3/84y97IeKOxx9/PLtTp05Hzp8/n/zWW29lZGdnb58yZcqfcnNzn2P8BarLu8g0+fn5dvxFQUGBee+99/yaMl6INcuWLbP169atM8XFxWbgwIF+bXnTpk2zrR46Tl5entmxY4dfAwBA7IibN2+eP1s9169fjw8vr7/++jTVjRkzxm4DVOXVV1+107S0tF+2bNnSeOVaXFzcNU2DxVt3VcVu7FHAGDBgwI5Ro0YtT0lJeUN1x48fv+vs2bNd//jHP/71G2+8MXXXrl2PtPDceuutf05KSvoff1c0QfXxXdO+fXvTtWtX2z3K+zdkuzV16dLFfOUrXwnViRdczYMPPmhbHRRAHn30UTsGwwluq6mOpSdG3X777Xa/zp07mzvuuMPWo/HU9rsGAFBzLUpLS/3Z6lFfdhW9U8CVqVOn2ucyrlmzxm4DVGXixIl2umDBgtT4+PhSr1xOSEgo0YuogsVbd0nFblwFjbH47//+7zGa+quswYMHb/yrv/qrf7v33ns3Vuc4iC581yBSdf1dAwCoHN2f0OSlpqb+5plnnhnP+AsAAIDGQahAs8H4CwAAgMZBqECz1Llz5yNeqJj3wgsv3KGQobCh0HHy5Mler7zyymzefwEAAFB3CBVo9tQdSt2i1D1K3aTUXUrref8FAABA3SBUIKYw/gIAAKDuESoQkxh/AQAAUHcIFYh5jL8AAACIDKECCGD8RfPlBUKzd+9ef6ly1d0OAAB8hlABVILxF83L2bNn9aJEf6ly1d0OAAB8hlAB3ATjLwAAAKpGqABqgPEXzUdJSYnt5rRt2zZz9OhRf+1nVL9z505bry5RAACgcoQKoJYYf9G0rV692hw8eNDOz58/3xw4cMDOy7lz52z9hQsXjBcYzYwZMwgWAABUgVAB1AHGXzQuXfCrRcGV6gSASZMmmXHjxpm0tDTj/TezrRLOoUOHTHp6uq3TNiNGjDC7d+/2awEAQDhCBVCHGH/RdCQmJtpuT2qhKCoqMt5/I7/GmEGDBpnk5GR/yZghQ4aY/fv3+0sAACAcoQKoJ4y/aDgKAGpVcCUYCCqi8RJz5swxr732mvnggw/8tZU7ffq0AqO/BAAAwhEqgAbA+IvosmfPHnVZM5mZmbZ7U48ePfyaMurqpODhaEB3v340LAEAUBlCBdDAGH/R+G677TaTn59vx18UFBSY9957z68p4/03McuWLbP169atM8XFxWbgwIF+LQAACEeoABoJ4y8aVocOHWzrhPTs2dPMnTvXznfv3t0OynZ12m7kyJHmqaeesstqoZg+fbodgwEAACpGqACiAOMv6p/GWaSkpPhLZcFC4y+0Lljn5t04jaFDhxIoAAC4CUIFEGUYfwEAAJoaQgUQxRh/AQAAmgJCBdAEMP4CAABEM0IF0MQw/gIAAEQbQgXQhDH+AgAARANCBdBMMP4CAAA0FkIF0Mww/gIAADQ0QgXQjDH+omHozdve35+/1HCOHj1q9u7d6y8BANB4CBVAjGD8RcUUBg4cOOAv1U5ubq45e/asv1R7x48ft0HB0WerKjQcPnzYeP+9/CUAABoPoQKIQYy/+Mzu3bvN1q1b/aXG9dvf/tYGBUdBhdAAAGgKCBVADIu18RdqCVBXJdddSa0C+/fvN96frVwXJs0HqbUg2L2ppKTE7Ny5s9JuT1qnOm2jbR13HJ1X9cFWCdXpc+jzhJ8/yO1LtycAQDQhVACwmvv4C12ML1++3F8qawWojLozBam1wG2vUOAFLXUbs8svvviinTrqSjVjxgxz8eJFu82yZcv8mrLjbNmyxezatcvWz58/v1ywuJmCggKzcuVKO3/w4MEbPicAAI2FUAHgBk1t/IVrGXBFy+HUrejBBx80aWlptvTs2dOW/v37m+7du9t1ycnJ/taVUyhIT08348aNs/s89dRTfk2Z9evXm7lz55pRo0bZbe68884bxmxovep1HAUMSUlJsZ9Dn0fHDac/U35+vsnKyrL1OsaIESP8WgAAGhehAkCVmsv4iwEDBpg333zT3u2vKHRU14kTJ0zv3r39JXNDEFEXKwUYF3C0/UcffeTXGjNkyBB/ztjjqL461FIyaNAgk5iY6K8xplOnTv4cAACNi1ABoFqiefyFLux1996VilocunTpYu/yt27d2nZPivSJT9WllodgCAEAoDkiVACosaY6/kJ3+RU6Zs6cGXriU8eOHe00nGvN0EBrDaB2vD+n+fjjj/2lspaJcGpRCIYcdbOqDu/v1Z+7UVJSkv0cwYHfblwHAACNjVABICJNZfyFe2qSysaNG80DDzxg19922232sbLBsRgaq6AB2Fq3evVqu855+OGHjffnMnl5ebYrlR4DGzRt2jTbEqI6d77q6tGjh3nnnXcq3EctLRp3kZ2dbetzcnJMcXGxXwsAQOOKmzdvnj9bPdevX48PL6+//vo01Y0ZM8ZuA1Tl1VdftdO0tLRftmzZ0njlWlxc3DVNg8Vbd1XFbowmwbso/sPQoUP//W/+5m+W/6//9b+Onjt3rtOpU6du/+ijj/rt2rXrsTfeeGOquka1bdv2rFd/xN+tQvXxXeNaGL7yla+Yu+66y85/7nOfM5///OeN91ntoOr4+Hg7/kLr9YQmBQwNoO7atattLdD6YcOG2TEOHTp0sAOu1d3qjjvusPXazvs7MKdPn7bH79atW2jsQ6tWrULHcdq3b2/Xye23327Pn5CQYOclWK/Pdeutt9rPpXPcfffdtnXD1aM8vmsAoOG0KC0t9WerR3caVa5evZroytSpUw+qbs2aNXYboCoTJ0600wULFqR6F1ClXrnsXUSVeNNyxVt3ScVujCbrxIkTvXbs2JGxffv2b6l7lL9aF9pH1KoxfPjwX3kX7TcMcOC7BpHiuwYAGg7dnwDUq+b+/gsAAECoANCAmtr7LwAAQPUQKgA0ipu9/2LKlClHvKCR88c//vGv7A4AACBqESoANKrK3n9x4cKFDoWFhV9fsmRJ/g9+8IPCV199dYa/CwAAiDKECgBRIzj+Ijs7e5hnrZ4U9cknn9y+ZcuWyf5mAAAgyhAqAESlu+66650JEyZ8d/ny5Z+fOHHitC996UsFfhUAAIgyhAoAUW/w4MGvegFjur8IAACiTJ2+pwKoCZ4dj6o0pfdU6A3XgwYNsi/BQ/TgPRUA0HDqpKWiZ8+eH/izQLV4F19lrzYGGtmZM2fMgQM3vHuvRnJzc+0btiN1/Phxc/ToUX8JAICmo05aKlS8dZq28koLf1PgpuK5e4hKNFRLhVoZ9u/fbzIzM/01Nac74nPnztUNFn9N7eTk5Jj+/fubtLQ0fw0iQUsFADScGrdUtGjRolQlOB8s3hc0hVLton9HLVu2rFmyBWpJLQEKESpqoVCrgALFsWPHQutE80F79+4N1UlJSYnZuXNnuX2CtE512kbbOu44Oq/qg60SqtPn0OcJPz8AANGuNt2fFB6uqwTn4+LiriYkJFz2LhQplBoVL1Rc9co1928q7N8YUCd0Ab98+XJ/yVTZXUndmYIKCwtD2ysUTJkyRW8Bt8svvviinTrqSjVjxgxz8eJFu82yZcv8mrLjbNmyxezatcvWz58/n+5OAIBmocbdn65duxbvuiR48+ru1ErT69evx3slzt8MqDaFBwULBQwvnLqwYbskeMtX/M0QY2rS/UkX+rt37/aXTIWDpt3d//CuRVof3v1J3WaC51C3pNGjR9vuTXl5eaZTp06h4+jcChGu+9OcOXPM5MmTQ12htP0Xv/hF069fP3uczp07m3Hjxtk6nfvkyZOhZbo/1S26PwFAw6lxS4XuKKuoZcK7GLRTXQj6F4M3fFlTKNUsoRYLf2rn/X92QMQGDBhg3nzzTVNQUGCDQG2dOHHC9O7d21+yDx3w58qoi9Xhw4dtYFDR9h999JFfa8yQIUP8OWOPo3oAAJq6Wo2p0N1jV7wLvyu6ICRUUCIoChShf1N+UWil+xOqRRf2urvvSkWPdu3SpYvJysoyrVu3ti0LkT7xqbrU8hAMIQAANEe1eqSsLvh0J1nNyCp+sKjoYpFCuWnx/v2U65Lg/n35/9yAOpOYmGhDx8yZM83WrVvtuo4dO9ppONeaoYHWGkDttG3b1nz88WdPRFbLRDh1vwqGnOo+FUpdowAAaIri5s2b58/WjHfRp4G1oaf3aNkr6htvu0dRKNUtChF+UTi1LRXu3xZilz9Oq1x5/fXXp6luzJgxdpua0IBojbv405/+ZAPF3/zN39ixEd6/NfOv//qvpl27duaWW24xSUlJNkj87ne/M5cvX7YDq8+dO2f+8i//0raA3HbbbWbJkiV2myNHjpj/+q//siFj2LBhtl4BYsGCBXpcsvnzn/9sz3fHHXfYz/Duu++avn37hlpSNPj74MGD5t5777XLOo8Gc+u8bh/U3quvvmqnXrD7pfddY3+3vO+XSr+D7MYAgFqp8UDtcN7+Lb0f+zivqNWDd1SgNhRKbSClyxOcun5PRXAwt7ojBVsP1BVK4x5SU1Nta4boEa+nTp2yrQ4KD7169QqFAXesNm3amIEDB9ogEBwcrtaLffv22flu3brZQdqiY4YfR8dOSUmxy6LH0MrQoUPtFLXHQG0AaDgRhwoAqA91HSoQewgVANBwajWmAgAAAAAcQgUAAACAiBAqAAAAAESEUAEAAAAgIoQKAAAAABEhVAAAAACICKECAAAAQEQIFQBQR/RyO73QriHoDeE6HwAA0YBQASBm6M3Z9XnRrzdrnz171l+KjD5nVaHh8OHD9nwAAEQDQgWAmLFkyZI6u+ivb/qchAYAQFNBqAAQE7Zt22anu3btKtcCoBYB1e3cudOUlJT4a8uoZUN1FbUYHD9+PLRfeOuHuiapTtNwOlZ4nWuVcJ8l/HiOO25VLRgAADQGQgWAmKXQMGPGDHPx4kVTVFRkli1b5teUhZCtW7fa+c2bN5uCggI7L7qonzNnTmi/3bt3+zVloUVFdfPnz7fncBYtWhRqfVi5cmWozrVK5Obm2uWK6PzaRw4ePFjltgAANDRCBYAmz93hd6WiO/1paWl2OmTIEJOSkmLn169fb+bOnWtGjRplxo0bZ+68887QhX5qaqrJzMy0+02YMMHk5+fb9Tr2ihUrzNKlS0P7adsgrVNdenq6+eCDD+w6BZF27dqFjjlr1iyzceNGWycKJtpedcnJyf7aMjqnzp+VlWXrdfwRI0b4tQAAND5CBYCYpS5MGvDswsiJEyfMRx99ZOsSExNtvboc7du3z64TtSoMGjSo3IW/tnUUWpzevXvbY8qpU6fs1J1LIeLQoUN2nfTp0+eGMOG4cwbP06lTJ38OAIDGR6gA0OTpYlx38F2p7OL8Zvr372+DgKxbt86sXbvWbN++3S7XB7VMOGrFAACgqSJUAIgZXbp08ec+oxaAYCDp2bOnbaEoLi42s2fPNhkZGWbAgAH+1sZ06NDBtjIEB3WHD/CuSJs2bUznzp3LnUulOpKSksyxY8fKnUdjOQAAiBaECgAxo2/fvrblwT09adq0aXagtgZBu25JopYOdU1y6zdt2mTXi+rGjh1rsrOzbV1eXl61Hv06cOBA8+GHH5qcnJzQuSp6OlRFFIY0DsSdU8dQ6AEAIFrEzZs3z58FgOhx/fr1+PDy+uuvT1PdmDFj7DY1pe5Nn376qbnlllvsmISuXbuaoUOHmtOnT9v6bt262fXx8fFm2LBh5uTJk7aF4aGHHrJh4o477rDbKZzcdddddr/bb7/dtnZon1atWtljqmXBad++vV2n+sGDB5vWrVvbJ0PpuNrXbeu2CwquU2vJrbfeavfVZ7777rtty0f4PvjMq6++aqdpaWm/bNmypfHKtbi4uGuaBou37qqK3RgAUCstSktL/VkAiB5XrlxJUrl69WqiK1OnTj2oujVr1thtgKpMnDjRThcsWJDqhbpSr1xOSEgo8ablirfukordGABQK3R/AgAAABARQgUAAACAiBAqAAAAAESEUAEAAAAgIoQKAAAAABEhVAAAAACICKECAAAAQEQIFQBQR/Sm7jNnzvhLAADEDkIFgJhx4MCBer3oLywsNGfPnvWXAACIHYQKADFjyZIlXPQDAFAPCBUAYsK2bdvsdNeuXbabkqOWC9Xt3LnTlJSU+GvLqGVDdcHtnePHj4f2C2/9OHr0qK3TNJyOFV6n/V3XKdXVZ2sKAAD1gVABIGYpNMyYMcNcvHjRFBUVmWXLlvk1ZSFk69atdn7z5s2moKDAzosCwJw5c0L77d69268pCy0qqps/f749h7No0SLbRUpWrlwZqlPridbn5ubaZQAAmhpCBYAmz93hd6WiO/1paWl2OmTIEJOSkmLn169fb+bOnWtGjRplxo0bZ+68887QhX5qaqrJzMy0+02YMMHk5+fb9Tr2ihUrzNKlS0P7adsgrVNdenq6+eCDD+w6BZF27dqFjjlr1iyzceNGWycKJtpedcnJyf5aAACaBkIFgJilLkyHDx8OhZETJ06Yjz76yNYlJibaenVT2rdvn10nalUYNGhQuQt/besotDi9e/e2x5RTp07ZqTuXQsShQ4fsOunTpw9hAgDQZBEqADR5uhjXHX5Xantx3r9/fxsEZN26dWbt2rVm+/btdrk+qGXCUSsGAABNFaECQMzo0qWLP/cZtToEA0nPnj1tC0VxcbGZPXu2ycjIMAMGDPC3NqZDhw62lSE4qDt8gHdF2rRpYzp37lzuXCoAADQHhAoAMaNv37625cE9zWnatGl2oLYGYbtuSaKWDnVNcus3bdpk14vqxo4da7Kzs21dXl5eaPB1VQYOHGg+/PBDk5OTEzpXRU+HAgCgKSJUAIgZ48ePNz169DBJSUl2WQO2Fy5caFq3bm2Xu3XrZqcaI6GB2FqvFgbtF+yqpEHYkydPtvMKKm6gtqZqyXA07+p0zOnTp4eWdVy3bXA7AACaohalpaX+LABEjytXriSpXL16NdGVqVOnHlTdmjVr7DZAVSZOnGinCxYsSI2Pjy/1yuWEhIQSb1queOsuqdiNAQC1QksFAAAAgIgQKgAAAABEhFABAAAAICKECgAAAAARIVQAAAAAiAihAgAAAEBECBUAAAAAIkKoAAAAABARQgUANEFnzpwxBw4c8JcAAGhchAoAaIJ2795ttm7d6i8BANC4CBUAYoru7m/bts3s3bvXlJSU+GsrX68WAa3T1NW79cFlx22rqeo179YHl4Nc3dGjR/01n51Xn2Xnzp22uM+l7fbv32+OHTtW6TEBAGhIhAoAMSMvL8+sX7/ezhcWFpri4mI7v2jRotBdf61ftmxZ6AL+7NmzZvPmzSY3N9cur1ixwl7Iu2UdU8uO9ledLviLiorM4sWLTUFBgV0+efKkmTFjRrnQonNrH1m5cmWoS5M774YNG8yFCxfMe++9Z1avXm3rAACINoQKAE2e7tTrwt6VyloDPvzwQ7Nw4UKTlpZmMjMzTdeuXe36du3a2eXg+j179vh7GnPo0CEzadIkWz9z5kwbGtzyE088YVsNgnr16mVGjRplMjIyTPv27e06LY8bN8706dMnFGbCzz1r1iyzceNGWyc67yOPPGLrdD51edKfrWfPnqZ///6me/futi45OdnfAwCAxkGoABATTp06Ze69915/qUxiYqJdrwv0oKFDh9qWAWfQoEF2W2nduvUNy+G+8IUv+HPGhobwZUfnFheGFBoUJBydxwUGnU/LasEAACDaECoANHm68NYde1fq4s5927Zt/bmGlZ6e7s8BANB0ECoAxISOHTve0E1JYxsqWq9B0f369fOX6k+bNm1M586dywUilerQ5wYAIFoQKgDEhJSUFHPu3DmTk5NjuxppqrENla0fOHCgv2f90Tk0zsOdWyX4BKiq3Hbbbba7lPbh6U8AgMYWN2/ePH8WAKLH9evX48PL66+/Pk11Y8aMsdvU1F//9V+bVq1amYsXL5p77rnH3HXXXTes//znP28ee+wxEx8fb+tEg601eNupalnH0XxSUtJNl3WOwYMH23EZOrdaLm6//fbQtuHnCe77uc99zn5WBaI777yz3OdFmVdffdVO09LSftmyZUvjlWtxcXHXNA0Wb91VFbsxAKBWWpSWlvqzABA9rly5kqRy9erVRFemTp16UHVr1qyx2wBVmThxop0uWLAg1QtdpV65nJCQUOJNyxVv3SUVuzEAoFbo/gQAAAAgIoQKAAAAABEhVAAAAACICKECAAAAQEQIFQAAAAAiQqgAAAAAEBFCBQAAAICIECoAxISSkhL79mlNI6Fj1CW9DXvv3r3+Uu3pOHX92QAAqC5CBQCEUfDQhb4u0nfu3FkuiOTm5vpzdePs2bOmsLDQX6o9HaeuPxsAANVFqAAQExITE01aWpqdVuXAgQNmypQpodaDoqIik52dbecBAEDFCBUAYkJ4NyMtqxVCrRFHjx4NrVu/fr1ZuHChycjIsCFk3Lhx5plnnrH1Qa4lQ/sEqVXDHbeiOrefwktFtD5Yp2NU1GIiwbqLFy/6awEAaHiECgAxIdjNSBfnixcvNp988oldPn36tJ1u2bLFhoguXbrYZSd8uaCgwBw7dsycPHnSzJgxIxQeNFUrh1o3dJGvc7g6nXPZsmWhz6DwEk5hYsmSJeaWW24JLev4OpaOqf2dYJ3+HBUdDwCAhkKoANDkuTv2rrgL+coUFxeb7t27m1GjRtnWiJSUFLv+xIkToQv6qrh9FUAGDRpkjhw5YtcrlKSnp9v1rt6FiFdeecXcfffdJjMz054zKyvLrneOHz8eaiVxIUbLc+fODR3rzjvvDLViBOtcPQAAjYVQASDmdO3a1Zw7d87k5eWFuj7VhAsh0r9/f3Pq1Ck7r1Ci1gsXbg4ePBgKHKr7whe+YOclOLZDn2XOnDlm8uTJ5VpFFDQOHz4cOp6O8dFHH4XqevbsaeelOmEIAID6QqgA0OQlJyfbu/+uaLkquqCfPXu26du3r1m5cqXtziRt27YNdYWqC506dTKpqan+UtX69OljPv74Y3+pYgowvXv39pcAAIgehAoAMUstDuqGlJ+fb5eHDh1qWy/Cu0+pVaA6FEoUVIIBx7VqdO7c2bY6OMFB1+3atTPTp083q1atKjeYXNS9Kni8YOtE8HPdLJAAAFCfCBUAYk5wDMaGDRvM2LFj7fp+/fqZr33ta3YAtMKF6jVdu3atrb+Zhx9+2KxYsSK0r4oLKF/96lfteyRcXfhjatV6ovEU2t+Nm5g2bZr9LGpJccdzVKcuU6rTMXfs2OHXAADQ8OLmzZvnzwJA9Lh+/Xp8eHn99denqW7MmDF2m5pq3769HU/RokULoycmXblyxdxxxx3mK1/5ir+FMbfffrsZNmyYrVPR8mOPPebXlrUqaB+nZcuWpmPHjrbL1ec+97ly+2r9bbfdZuLj401SUpIZOXKkfVqT6v72b//Wbi/uc2lZLRsal6Hzap1aT1yXrG7dutkuVaI6bavxGNr2wQcftK0hwc8W61599VU7TUtL+6X+O3nlWlxc3DVNg8Vbd1XFbgwAqJUWpaWl/iwARA/vwjtJ5erVq4muTJ069aDq1qxZY7cBqjJx4kQ7XbBgQaoX7Eq9cjkhIaHEm5Yr3rpLKnZjAECt0P0JAAAAQEQIFQAAAAAiQqgAAAAAEBFCBQAAAICIECoAAAAARIRQAQAAACAihAoAAAAAESFUAIgJJSUl9o3UmjYle/fuNUePHvWXAACIToQKAPCdOXPGBg9XouFivrCw0Bw+fNhfAgAgOhEqAMSExMREk5aWZqeVOXv2rHnzzTf9JWNWrlxpCgoK/CUAAFAZQgWAmKBWCHUlcrS8c+fOG1okunfvbsOHSlZWlsnPzw91mQruo/mgAwcO2PWqd9trqnNqffDc4tZX1BpSVR0AANGIUAEgJqgVQl2JRBf7ixcvNp988oldPn36tJ2GU6vGoEGDTHFxsV2eMWOG3efixYt23gULBYCtW7fa+QsXLth6Wb16tTl48KCdP3XqlJ3KokWLQp9FrSEKJE6w7rXXXjO7d++28wAARDNCBYAmTxf3urB3JbwVIZxCglokRo0aZVskUlJS/JryFD50Ud+zZ0+7/MILL9h9VO67775QGNi/f78ZPXp0qIUjOTnZrte+48aNC60XtUK0a9fOZGZm2nWzZs0yGzdurLBO0y5dutg6AACiGaECQMzp2rWrOXfunMnLy7uhi9GxY8dsMNFYiilTpphp06b5NWW0vS7+z58/b1slJDU11bY4BLs+yYgRI0xOTo7d3nEtFi4AKXgcOnTIrlNd//797byj8AMAQLQjVABo8tQy4FoDVFxLQWXUrWn27Nmmb9++lQ7Gbt26tVm6dGmoFUNhIjs723ZJUvAI0jZqcSgqKrJBxLWUqJVCLRjqzqRuTZVJT0/35wAAaJoIFQBilsKAG4ztBAdqB8PJ9u3bzRNPPGG7JKn7U9u2bf2aMtpWIWLs2LHlxkGo65T2EQWTNm3amM6dO5cLQSqiOgUTR60e4QEGAIBoRKgAEHOCYzA2bNhgg8DN9OjRw4590D7r1q2z3Z8c97QmFbVKaHC3uHWuJUQBY+DAgebDDz+03aJcveuCpTqN93B1y5Yts+sBAIh2cfPmzfNnASB6XL9+PT68vP7663aAw5gxY+w2NdW+fXs7nqJFixb2KU5Xrlwxd9xxh/nKV77ib/HZNuG03ec+9zn7ZCeFBnWd6tixo22hUIuCe4LUY489Fmrh0BOntH2HDh3Mo48+auLj420ZPHiw7V6lOrVO3H777SYpKSlUp8+nz/a3f/u3tuWkW7duN+3ShRu9+uqrdpqWlvbLli1bGq9ci4uLu6ZpsHjrrqrYjQEAtdKitLTUnwWA6OFdVCepXL16NdGVqVOn2uezrlmzxm4DVGXixIl2umDBglQvsJV65XJCQkKJNy1XvHWXVOzGAIBaofsTAAAAgIgQKgAAAABEhFABAAAAICKECgAAAAARIVQAAAAAiAihAgAAAEBECBUAAAAAIkKoAIAI6Q3deqs2AACxilABABHSm7MLCwv9JQAAYg+hAgAAAEBECBUAYoLroqTptm3bQt2VwpeDDhw4UGGd1pWUlJidO3eao0eP+ms/o/1UAACIFYQKADFBXZQ2b95scnNz7fKKFStsOHDLeXl5dtnR/NatW+289isoKLDzon1eeeUVc+HCBX/NZxQmlixZYm655RZ/DQAAzR+hAkCT51obXNFyRQ4dOmQmTZpk0tLSzMyZM204cMtPPPGE2b9/v7+lMampqSYzM9PWTZgwweTn5/s1Zfr27Wvrevbs6a8x5vjx42b9+vVm4cKFpkuXLv5aAACaP0IFgJgxaNAgk5iYaOdbt259w3KQ1iskqHvTvn37/LWf6d+/vz9X5ty5c2bOnDlm8uTJBAoAQMwhVABo8pKTk22rgStajtS6devM2rVrzfbt2/015bkwEtSnTx/z8ccf+0sAAMQOQgUAhFELRXFxsZk9e7bJyMgwAwYM8Gsq165dOzN9+nSzatUq3lkBAIg5hAoACKOWDo2/0OBsjdHYtGmTX1M1tV5oPIUGgfP0JwBALCFUAIgJHTp0sIOvnaqWFQ6WLl1qx1m0adPGjB8/3qSnp9s6Cc5LcF+Np5g7d26lg8UBAGiOWpSWlvqzABA9rly5kqRy9erVRFemTp16UHVr1qyx2wBVmThxop0uWLAgNT4+vtQrlxMSEkq8abnirbukYjcGANQKLRUAAAAAIkKoAAAAABARQgUAAACAiBAqAAAAAESEUAEAAAAgIoQKAAAAABEhVAAAAACICKECAAAAQEQIFQDQQA4cOMCbtgEAzRKhAgAayJIlS8zZs2f9JQAAmg9CBYCYoBaCvXv32um2bdtCLQZueefOnaakpMSuE7ft0aNHbb2Ww6le+6n++PHj/toyWqfjqd4dQ3bt2lXhsQAAaMoIFQBigloICgsLTW5urr+mrDvSjBkzzMWLF01RUZFZtmyZX2Pstlu2bDHbt2+3y3l5eaagoMDOi9v3k08+sfvPmTOnXFjQeV555RVz4cIFfw0AAM0XoQJAk+daG1xxrRDhdu/ebdLT001aWppJTk4269evN3PnzjWjRo0y48aNM3feeacNC0EZGRl2+1mzZpn8/Hx/rSm3r8rChQvNihUr/Noyffv2tfv27NnTTmXIkCEmJSXFzgMA0FwQKgDEjD59+tgw4ajL0uHDh0Nh5MSJE+ajjz7ya8sCgKP9Bg0aZLsyifZVWHC6dOlij+/qpX///v4cAADNG6ECQJOnC361BLgSDA5B7dq18+cqphDQu3dvf+lGx44dM0lJSf5SxYL1iYmJ/hwAAM0boQJATFPrQzCQBFsf/vCHP/hzZS0TKmqREE2DrRKqO3ToUKi+IlXVAQDQlBEqAMSsadOm2cHWGoDtukAFHTlyxA7Q1noNxNb2zhNPPGHmz59v91UJr6+Ixlho4DdPfwIANDeECgAxoUOHDiY1NdVfKqMB0xpg3bp1a7vcrVs3O3VGjx5tg4BoUHZwgHW/fv3M0qVL7b4qmg/Wa0B4uPHjx5sePXrctAsVAABNDaECQEzQOIuKnrqkLkmu65OCQjjtE94tygmO5Qgfx6F14TTGorLzAADQlBEqAAAAAESEUAEAFVBXKXWZAgAAN0eoAIAKqNtTZY+mBQAA5REqAAAAAESEUAEAAAAgIoQKAAAAABFpUVpa6s8CQPS4cuVKksrVq1cTXZk6depBvxqotgULFqTGx8eXeuVyQkJCiTctV7x1l1T8zQEAtUBLBQAAAICI0FIBICpV1VKxZs0auw1QlYkTJ9opLRUAUP9oqQAAAAAQEUIFAAAAgIjQ/QlAVGKgNuoK3Z8AoP7RUgGgyejZs+cH/ixQLcnJyR/7swCAekRLBYCoVFFLhYq3TtNWXmnhbwrcVDwtFQBQrwgVAKKSHyBssLh27ZpCRLlQ4X13ESpQI61atSqJi4u7TKgAgLpHqAAQlRQc/BBhWytcsPCmCdevX4/3CqECNeIFiCteqFC57MKFCxTe/GV/MwBALRAqAEQlLzzEhwWKVpr6gSLO3wyothYtWlxv2bLlVQUIP1SEgoXChr8ZAKAWCBUAopK6N7muT+ry5AWJBAUNhQqvjodMoMb8UHFNwUIhQoHCDxUlqvM3AwDUAqECQNRSiHChwpsmeN9XcVrnVdH1CTXmBQf94F33AkUwVKjVglYKAIgQoQJAVFO3J7VOKFR48woWaqUgVKDG9HvnBYhQS4UfLi77YQMAEAFCBYCop1ChQOF3fdL3Ft2fUBulXqCw4yoUKDQlUABA3SBUAGgSFCS8UBHnFVoqUFsuVFxjDAUA1C1CBQAAAICI0IUAAAAAQEQIFQAAAAAiQqgAAAAAEBFCBQAAAICIECoAAAAARIRQAQAAACAihAoAAAAAESFUAAAAAIgIoQIAAPz/7dcxAQAAAMIg+6c2xF5oAUAiFQAAQCIVAABAsB204ThsMQJ/4QAAAABJRU5ErkJggg==;" vertex="1" parent="-3bvXb9xsOaprucixAK7-1">
          <mxGeometry x="248.02999999999997" y="74.99999999999999" width="1084.28" height="1019.69" as="geometry" />
        </mxCell>
      </root>
    </mxGraphModel>
  </diagram>
</mxfile>
